<svg width="927" height="381" viewBox="0 0 927 381" fill="none" xmlns="http://www.w3.org/2000/svg">
<path d="M882.144 180.188L476.267 377.894L49.3322 234.819L47.6123 196.878L461.203 180.874L461.268 180.872L461.332 180.867L882.145 147.556L882.144 180.188Z" fill="#FBF9F4" stroke="#929292" stroke-width="2"/>
<path d="M476.168 342.451L48.2084 196.285L460.921 14.6593L881.578 147.044L476.168 342.451Z" fill="#F4EDDD" stroke="#929292" stroke-width="2"/>
<line x1="476.172" y1="342.396" x2="476.172" y2="377.854" stroke="#CFCDC6" stroke-width="2"/>
<path d="M383.066 147.623L408.289 135.466L417.263 138.41C420.255 139.391 421.927 140.485 422.28 141.69C422.683 142.893 421.563 144.131 418.92 145.404C416.254 146.69 413.374 147.379 410.281 147.474C407.213 147.577 404.184 147.137 401.193 146.156L397.542 144.958L388.39 149.37L383.066 147.623ZM402.082 142.77L405.429 143.868C406.873 144.342 408.277 144.569 409.64 144.549C411.002 144.529 412.284 144.229 413.485 143.65C414.686 143.071 415.17 142.52 414.936 141.996C414.727 141.46 413.9 140.955 412.455 140.481L409.109 139.383L402.082 142.77ZM403.555 154.345L429.859 141.667L434.993 143.351L408.689 156.029L403.555 154.345ZM420.269 160.208C418.469 159.617 417.253 158.868 416.623 157.961C416.041 157.05 416.039 156.096 416.617 155.099C417.245 154.098 418.459 153.163 420.261 152.295C421.606 151.647 423.121 151.122 424.805 150.721C426.513 150.308 428.255 150.033 430.031 149.896C431.831 149.747 433.567 149.742 435.237 149.882C436.957 150.018 438.502 150.311 439.871 150.76C441.594 151.325 442.626 151.917 442.964 152.534C443.327 153.139 443.27 153.772 442.794 154.433L445.748 153.009L450.844 154.681L432.107 163.712L427.125 162.078L430.188 160.602C428.599 160.936 426.986 161.098 425.348 161.086C423.736 161.083 422.043 160.79 420.269 160.208ZM425.501 158.363C426.642 158.738 427.858 158.942 429.15 158.977C430.491 159.008 431.798 158.902 433.071 158.658C434.344 158.414 435.461 158.06 436.422 157.597C437.407 157.122 438.079 156.613 438.44 156.07C438.8 155.526 438.814 154.996 438.482 154.478C438.176 153.969 437.452 153.527 436.311 153.153C435.221 152.795 434.005 152.601 432.664 152.57C431.373 152.535 430.09 152.64 428.817 152.884C427.544 153.128 426.415 153.487 425.43 153.962C424.494 154.413 423.833 154.917 423.449 155.472C423.088 156.015 423.061 156.541 423.368 157.051C423.7 157.568 424.411 158.006 425.501 158.363ZM435.157 164.713L453.894 155.681L458.951 157.341L456.213 158.661C459.366 157.983 462.438 158.134 465.43 159.116C466.849 159.581 467.817 160.152 468.333 160.827C468.85 161.503 468.861 162.226 468.367 162.998C467.873 163.77 466.833 164.538 465.248 165.302L453.789 170.825L448.656 169.141L458.925 164.191C460.559 163.404 461.343 162.708 461.278 162.103C461.237 161.486 460.582 160.97 459.315 160.554C458.225 160.196 456.889 160.06 455.308 160.144C453.776 160.225 452.193 160.66 450.56 161.447L440.29 166.397L435.157 164.713ZM456.658 171.766L475.395 162.735L480.452 164.394L477.714 165.714C480.867 165.036 483.939 165.188 486.931 166.169C488.35 166.635 489.318 167.206 489.834 167.881C490.35 168.556 490.362 169.28 489.868 170.052C489.374 170.824 488.334 171.592 486.749 172.356L475.29 177.879L470.157 176.195L480.426 171.245C482.06 170.458 482.844 169.762 482.778 169.156C482.737 168.54 482.083 168.023 480.815 167.608C479.725 167.25 478.39 167.113 476.808 167.198C475.277 167.279 473.694 167.713 472.06 168.501L461.791 173.451L456.658 171.766ZM500.993 169.878C500.131 169.595 499.672 169.221 499.616 168.755C499.609 168.286 500.002 167.86 500.795 167.478C501.564 167.108 502.516 166.885 503.652 166.81C504.836 166.731 505.86 166.834 506.722 167.116C507.609 167.408 508.056 167.788 508.063 168.257C508.093 168.714 507.724 169.129 506.955 169.499C506.139 169.893 505.162 170.127 504.027 170.202C502.891 170.277 501.88 170.169 500.993 169.878ZM478.158 178.82L496.895 169.789L502.029 171.473L483.292 180.504L478.158 178.82ZM486.328 181.5L505.065 172.469L510.122 174.128L507.384 175.448C510.537 174.77 513.61 174.922 516.601 175.903C518.021 176.369 518.988 176.94 519.505 177.615C520.021 178.29 520.032 179.014 519.538 179.786C519.044 180.558 518.004 181.326 516.419 182.09L504.961 187.613L499.827 185.929L510.096 180.979C511.73 180.192 512.514 179.496 512.449 178.89C512.408 178.274 511.753 177.757 510.486 177.342C509.396 176.984 508.06 176.847 506.479 176.932C504.947 177.013 503.364 177.447 501.731 178.235L491.461 183.184L486.328 181.5ZM509.774 195.41C507.772 194.753 506.249 194.039 505.205 193.269C504.164 192.518 503.707 191.629 503.837 190.601L510.599 189.93C510.528 190.724 510.819 191.374 511.473 191.88C512.126 192.387 513.074 192.844 514.316 193.251C515.229 193.551 516.294 193.725 517.513 193.774C518.731 193.824 519.965 193.732 521.214 193.5C522.464 193.287 523.582 192.944 524.567 192.469L525.395 192.07C523.998 192.312 522.566 192.406 521.1 192.353C519.659 192.309 518.14 192.024 516.543 191.5C514.743 190.91 513.54 190.165 512.935 189.266C512.354 188.375 512.367 187.445 512.971 186.476C513.6 185.495 514.815 184.571 516.617 183.702C518.419 182.834 520.47 182.184 522.772 181.752C525.074 181.32 527.368 181.138 529.654 181.207C531.989 181.273 534.056 181.601 535.856 182.191C537.504 182.732 538.508 183.285 538.868 183.851C539.254 184.425 539.256 185.019 538.876 185.634L541.434 184.401L546.491 186.06L529.412 194.292C527.49 195.218 525.389 195.872 523.108 196.252C520.853 196.641 518.58 196.761 516.289 196.613C513.974 196.476 511.802 196.075 509.774 195.41ZM521.811 189.639C523.51 190.196 525.332 190.385 527.279 190.207C529.226 190.028 530.932 189.586 532.398 188.879C533.863 188.173 534.631 187.423 534.702 186.629C534.773 185.835 533.959 185.159 532.261 184.602C530.588 184.053 528.778 183.868 526.831 184.047C524.909 184.233 523.216 184.68 521.75 185.386C520.814 185.838 520.152 186.321 519.764 186.836C519.403 187.36 519.375 187.866 519.68 188.356C519.985 188.845 520.696 189.273 521.811 189.639Z" fill="#443218"/>
</svg>
