<svg width="910" height="376" viewBox="0 0 910 376" fill="none" xmlns="http://www.w3.org/2000/svg">
<path d="M560.407 72.3942L446.014 128.09L325.335 86.6849L325.334 55.9362L439.406 0.381273L560.406 41.9659L560.407 72.3942Z" fill="#FEFDFC" stroke="#C3C3C3"/>
<path d="M560.132 41.8716L446.045 97.15L325.627 55.791L439.407 0.380848L560.132 41.8716Z" fill="#F5F1E9" stroke="#C3C3C3"/>
<path d="M435.915 45.4049L433.393 44.5731C433.713 44.3595 433.928 44.1475 434.037 43.9371C434.15 43.7247 434.17 43.5195 434.095 43.3213C434.02 43.1232 433.852 42.9375 433.59 42.7644C433.336 42.5906 432.998 42.434 432.576 42.2946C431.825 42.047 430.981 41.9143 430.043 41.8964C429.109 41.8765 428.135 41.9787 427.121 42.2028C426.111 42.4249 425.114 42.7744 424.13 43.2514C423.128 43.7365 422.449 44.1994 422.091 44.6401C421.742 45.0801 421.68 45.4797 421.906 45.8388C422.141 46.1973 422.632 46.4996 423.378 46.7457C423.792 46.8821 424.229 46.9849 424.691 47.0539C425.162 47.1224 425.644 47.1545 426.136 47.1503C426.633 47.1476 427.129 47.1066 427.625 47.0273C428.126 46.9495 428.606 46.8303 429.066 46.6697L431.575 47.5077C430.859 47.778 430.07 47.9934 429.21 48.1539C428.355 48.3158 427.466 48.4149 426.545 48.4512C425.628 48.4854 424.715 48.4481 423.807 48.3392C422.902 48.2283 422.039 48.0372 421.216 47.7659C420.002 47.3655 419.185 46.8792 418.764 46.3068C418.344 45.7343 418.362 45.1141 418.819 44.4459C419.276 43.7778 420.208 43.1031 421.614 42.4218C423.025 41.7384 424.507 41.2453 426.061 40.9425C427.62 40.6376 429.142 40.5133 430.628 40.5696C432.113 40.6258 433.459 40.8527 434.664 41.25C435.432 41.5036 436.045 41.7889 436.501 42.1059C436.958 42.423 437.246 42.7628 437.367 43.1253C437.492 43.4857 437.435 43.8591 437.197 44.2455C436.968 44.6313 436.54 45.0178 435.915 45.4049ZM437.619 48.3453L431.866 51.1325L429.425 50.3274L442.515 43.985L444.902 44.7723L439.962 47.1662L440.083 47.2063C440.88 47.0179 441.692 46.9301 442.519 46.9428C443.356 46.9549 444.17 47.0915 444.961 47.3524C445.68 47.5896 446.165 47.8656 446.414 48.1804C446.664 48.4952 446.66 48.8339 446.402 49.1966C446.149 49.5608 445.627 49.9349 444.834 50.3189L438.583 53.3477L436.142 52.5426L442.035 49.6873C442.695 49.3672 443.029 49.0592 443.036 48.763C443.051 48.4662 442.738 48.2118 442.095 47.9998C441.663 47.8575 441.187 47.7733 440.666 47.7473C440.154 47.7208 439.636 47.7562 439.11 47.8534C438.589 47.9522 438.092 48.1162 437.619 48.3453ZM443.854 55.2474C443.198 55.0309 442.717 54.7823 442.413 54.5014C442.117 54.22 442.036 53.9226 442.169 53.6091C442.307 53.2971 442.697 52.9852 443.341 52.6735C443.895 52.4051 444.461 52.2187 445.039 52.1144C445.617 52.0101 446.201 51.9668 446.791 51.9846C447.382 52.0023 447.966 52.0615 448.545 52.162C449.132 52.2619 449.703 52.3826 450.257 52.5238C450.924 52.6951 451.469 52.8317 451.894 52.9335C452.323 53.0333 452.674 53.0865 452.947 53.0933C453.229 53.0995 453.48 53.049 453.702 52.9416L453.74 52.923C454.222 52.6897 454.444 52.4594 454.407 52.2321C454.37 52.0047 454.068 51.7976 453.502 51.6108C452.904 51.4136 452.306 51.3171 451.708 51.3212C451.115 51.3267 450.589 51.3911 450.131 51.5141L448.158 50.6138C448.935 50.384 449.73 50.2403 450.544 50.1827C451.363 50.1229 452.171 50.1432 452.969 50.2433C453.772 50.3414 454.535 50.5098 455.259 50.7485C455.758 50.9131 456.199 51.1038 456.583 51.3206C456.967 51.5373 457.235 51.7751 457.389 52.0339C457.546 52.2907 457.532 52.5651 457.344 52.8572C457.161 53.1509 456.744 53.4556 456.092 53.7715L449.522 56.9551L447.175 56.1811L448.523 55.5277L448.442 55.501C448.021 55.5842 447.557 55.6391 447.048 55.6658C446.549 55.6919 446.024 55.6733 445.475 55.61C444.934 55.5462 444.394 55.4253 443.854 55.2474ZM446.188 54.6327C446.678 54.7943 447.195 54.89 447.738 54.9199C448.285 54.9476 448.808 54.9191 449.309 54.8342C449.813 54.7508 450.247 54.6213 450.609 54.4458L451.766 53.8853C451.63 53.889 451.444 53.8728 451.208 53.8368C450.977 53.8023 450.73 53.7572 450.467 53.7017C450.204 53.6461 449.947 53.5893 449.697 53.5311C449.447 53.4729 449.23 53.4222 449.047 53.3792C448.636 53.2818 448.234 53.2115 447.839 53.1682C447.445 53.1249 447.069 53.1223 446.711 53.1603C446.357 53.1963 446.031 53.2866 445.733 53.4311C445.307 53.6375 445.149 53.8475 445.26 54.0611C445.371 54.2746 445.68 54.4651 446.188 54.6327ZM466.966 54.7137L465.177 55.5808L459.222 53.617L461.011 52.7498L466.966 54.7137ZM464.834 52.095L467.275 52.9001L458.058 57.3658C457.747 57.5166 457.558 57.6485 457.491 57.7616C457.432 57.8742 457.456 57.9723 457.563 58.0561C457.67 58.1399 457.824 58.2151 458.027 58.2818C458.179 58.3322 458.329 58.373 458.477 58.4042C458.628 58.4369 458.746 58.4602 458.831 58.4742L457.433 59.4863C457.26 59.464 457.027 59.4251 456.733 59.3698C456.444 59.316 456.122 59.2341 455.767 59.1241C455.138 58.9307 454.675 58.7067 454.377 58.4522C454.083 58.1956 453.996 57.9208 454.118 57.6277C454.244 57.3361 454.615 57.0424 455.234 56.7465L464.834 52.095Z" fill="#C3C3C3"/>
<path d="M445.992 97.3945L445.989 127.904" stroke="#C3C3C3" stroke-linecap="round"/>
<path d="M416.243 142.732L301.85 198.428L181.171 157.023L181.17 126.274L295.242 70.7192L416.242 112.304L416.243 142.732Z" fill="#FEFDFC" stroke="#C3C3C3"/>
<path d="M415.968 112.211L301.881 167.49L181.463 126.131L295.243 70.7207L415.968 112.211Z" fill="#F5F1E9" stroke="#C3C3C3"/>
<path d="M264.646 113.064L277.736 106.722L286.584 109.64L284.596 110.603L278.25 108.51L274.697 110.232L280.436 112.124L278.448 113.088L272.709 111.195L267.148 113.889L264.646 113.064ZM279.232 118.03C278.22 117.697 277.555 117.306 277.235 116.856C276.915 116.407 276.929 115.932 277.279 115.429C277.633 114.928 278.317 114.432 279.331 113.941C280.345 113.449 281.436 113.086 282.603 112.85C283.775 112.615 284.942 112.518 286.106 112.558C287.27 112.598 288.357 112.785 289.369 113.119C290.381 113.452 291.046 113.844 291.366 114.293C291.686 114.742 291.667 115.218 291.309 115.721C290.956 116.225 290.272 116.723 289.258 117.215C288.243 117.706 287.153 118.068 285.985 118.301C284.822 118.535 283.659 118.631 282.495 118.591C281.331 118.551 280.244 118.364 279.232 118.03ZM281.099 117.137C281.648 117.318 282.249 117.4 282.903 117.383C283.561 117.364 284.223 117.267 284.889 117.091C285.559 116.916 286.192 116.684 286.789 116.395C287.39 116.104 287.841 115.811 288.142 115.514C288.452 115.218 288.568 114.938 288.489 114.676C288.41 114.414 288.097 114.193 287.548 114.012C286.986 113.827 286.374 113.743 285.711 113.76C285.052 113.779 284.386 113.877 283.712 114.053C283.046 114.229 282.413 114.463 281.812 114.754C281.216 115.043 280.764 115.335 280.458 115.63C280.157 115.926 280.046 116.205 280.125 116.467C280.212 116.728 280.537 116.951 281.099 117.137ZM286.459 120.258L296.277 115.501L298.644 116.282L297.007 117.074L297.115 117.11C297.871 116.898 298.631 116.793 299.397 116.795C300.171 116.797 300.855 116.896 301.448 117.092C301.583 117.136 301.727 117.189 301.881 117.25C302.043 117.311 302.17 117.365 302.261 117.412L300.133 118.443C300.063 118.393 299.929 118.324 299.73 118.238C299.539 118.151 299.341 118.073 299.134 118.005C298.689 117.858 298.197 117.77 297.659 117.742C297.129 117.713 296.603 117.743 296.081 117.831C295.559 117.919 295.09 118.064 294.672 118.266L288.9 121.063L286.459 120.258ZM293.989 122.741L303.806 117.984L306.139 118.754L304.471 119.562L304.593 119.602C305.371 119.401 306.167 119.306 306.982 119.318C307.8 119.327 308.556 119.446 309.248 119.675C309.949 119.906 310.379 120.179 310.536 120.495C310.702 120.81 310.607 121.134 310.251 121.468L310.359 121.504C311.133 121.315 311.955 121.232 312.822 121.254C313.699 121.276 314.513 121.411 315.263 121.659C316.217 121.973 316.709 122.368 316.74 122.843C316.772 123.318 316.24 123.821 315.145 124.352L308.555 127.545L306.107 126.738L312.339 123.718C312.948 123.423 313.223 123.151 313.162 122.902C313.106 122.651 312.831 122.444 312.336 122.281C311.747 122.086 311.112 122.019 310.43 122.079C309.756 122.138 309.143 122.301 308.589 122.57L302.466 125.537L300.072 124.747L306.399 121.681C306.906 121.435 307.149 121.186 307.128 120.933C307.111 120.681 306.845 120.47 306.327 120.299C305.977 120.183 305.572 120.119 305.114 120.107C304.66 120.093 304.195 120.132 303.717 120.224C303.244 120.314 302.804 120.457 302.4 120.654L296.43 123.546L293.989 122.741ZM326.441 127.562L323.986 126.94C324.136 126.816 324.226 126.682 324.256 126.54C324.291 126.398 324.235 126.257 324.089 126.115C323.944 125.973 323.682 125.84 323.304 125.716C322.796 125.548 322.265 125.458 321.71 125.445C321.159 125.433 320.72 125.509 320.392 125.671C320.102 125.808 319.98 125.957 320.026 126.118C320.077 126.28 320.307 126.476 320.718 126.705L322.127 127.461C322.907 127.882 323.318 128.276 323.36 128.643C323.406 129.013 323.08 129.368 322.382 129.71C321.759 130.008 321.023 130.21 320.172 130.314C319.33 130.418 318.444 130.425 317.515 130.333C316.585 130.242 315.689 130.054 314.826 129.769C313.558 129.351 312.789 128.892 312.518 128.394C312.252 127.893 312.496 127.399 313.251 126.913L315.849 127.593C315.514 127.843 315.409 128.081 315.534 128.306C315.659 128.531 316.002 128.736 316.564 128.921C317.144 129.113 317.722 129.211 318.299 129.218C318.88 129.225 319.336 129.149 319.669 128.988C319.95 128.851 320.067 128.701 320.021 128.537C319.98 128.374 319.77 128.19 319.391 127.985L317.976 127.232C317.178 126.81 316.773 126.407 316.761 126.025C316.754 125.641 317.11 125.276 317.83 124.93C318.431 124.636 319.128 124.439 319.922 124.34C320.724 124.24 321.562 124.235 322.434 124.325C323.315 124.415 324.169 124.596 324.996 124.868C326.21 125.269 326.921 125.703 327.128 126.17C327.339 126.639 327.11 127.103 326.441 127.562Z" fill="#C3C3C3"/>
<path d="M301.828 167.732L301.825 198.242" stroke="#C3C3C3" stroke-linecap="round"/>
<path d="M274.122 212.63L159.102 268.632L37.744 226.994L37.744 196.022L152.443 140.161L274.122 181.978L274.122 212.63Z" fill="#FEFDFC"/>
<path d="M273.47 212.554L159.077 268.25L38.3972 226.845L38.3962 196.096L152.468 140.541L273.469 182.126L273.47 212.554Z" stroke="#C3C3C3" stroke-opacity="0.9"/>
<path d="M273.195 182.034L159.108 237.312L38.6896 195.953L152.469 140.543L273.195 182.034Z" fill="#F5F1E9" stroke="#C3C3C3"/>
<path d="M152.001 184.774L149.479 183.942C149.799 183.729 150.014 183.517 150.123 183.306C150.236 183.094 150.256 182.889 150.181 182.69C150.106 182.492 149.938 182.307 149.676 182.133C149.422 181.96 149.084 181.803 148.662 181.664C147.911 181.416 147.067 181.283 146.129 181.266C145.195 181.246 144.221 181.348 143.207 181.572C142.197 181.794 141.2 182.144 140.216 182.62C139.214 183.106 138.535 183.569 138.177 184.009C137.828 184.449 137.766 184.849 137.992 185.208C138.227 185.566 138.718 185.869 139.464 186.115C139.878 186.251 140.315 186.354 140.777 186.423C141.248 186.492 141.729 186.524 142.222 186.519C142.718 186.517 143.215 186.476 143.711 186.396C144.212 186.319 144.692 186.199 145.152 186.039L147.661 186.877C146.945 187.147 146.156 187.363 145.296 187.523C144.441 187.685 143.552 187.784 142.631 187.82C141.714 187.855 140.801 187.817 139.893 187.708C138.988 187.597 138.125 187.406 137.302 187.135C136.088 186.735 135.271 186.248 134.85 185.676C134.43 185.103 134.448 184.483 134.905 183.815C135.362 183.147 136.294 182.472 137.7 181.791C139.11 181.108 140.593 180.614 142.147 180.312C143.706 180.007 145.228 179.882 146.714 179.939C148.199 179.995 149.545 180.222 150.75 180.619C151.518 180.873 152.131 181.158 152.587 181.475C153.044 181.792 153.332 182.132 153.453 182.494C153.578 182.855 153.521 183.228 153.283 183.615C153.054 184 152.626 184.387 152.001 184.774ZM145.619 189.732L158.709 183.39L163.888 185.098C164.949 185.448 165.664 185.826 166.034 186.232C166.409 186.64 166.465 187.058 166.203 187.485C165.95 187.912 165.406 188.327 164.571 188.732C163.731 189.139 162.814 189.43 161.818 189.604C160.831 189.779 159.806 189.827 158.741 189.75C157.68 189.671 156.619 189.456 155.558 189.106L151.869 187.89L153.838 186.936L157.189 188.041C157.81 188.246 158.399 188.374 158.956 188.426C159.518 188.476 160.051 188.456 160.555 188.366C161.068 188.274 161.557 188.116 162.021 187.891C162.486 187.666 162.785 187.442 162.92 187.22C163.059 186.995 163.016 186.776 162.791 186.563C162.57 186.348 162.147 186.137 161.522 185.931L159.229 185.175L148.121 190.557L145.619 189.732ZM158.685 189.211L156.173 193.213L153.381 192.292L155.954 188.311L158.685 189.211ZM171.06 187.463L174.122 188.473L168.737 194.421L168.899 194.474L182.484 191.231L185.546 192.24L172.456 198.583L170.055 197.791L179.048 193.434L178.92 193.391L166.148 196.471L164.354 195.88L169.511 190.273L169.383 190.231L160.371 194.597L157.97 193.805L171.06 187.463Z" fill="#C3C3C3"/>
<path d="M159.055 237.557L159.052 268.066" stroke="#C3C3C3" stroke-linecap="round"/>
<path d="M716.055 125.646L601.663 181.342L480.983 139.937L480.982 109.188L595.054 53.6332L716.055 95.2179L716.055 125.646Z" fill="#FEFDFC" stroke="#C3C3C3"/>
<path d="M715.78 95.1256L601.694 150.404L481.276 109.045L595.055 53.6348L715.78 95.1256Z" fill="#F5F1E9" stroke="#C3C3C3"/>
<path d="M545.85 90.2457L558.939 83.9033L564.119 85.6114C565.18 85.9613 565.882 86.3457 566.227 86.7647C566.576 87.1851 566.606 87.615 566.319 88.0545C566.04 88.4935 565.485 88.9143 564.654 89.3169C563.815 89.7236 562.883 90.0233 561.857 90.2162C560.832 90.409 559.768 90.4761 558.665 90.4176C557.566 90.357 556.484 90.1511 555.418 89.7997L551.985 88.6676L553.935 87.7231L557.03 88.7439C557.651 88.9485 558.261 89.0665 558.861 89.0979C559.461 89.1293 560.035 89.0894 560.582 88.9782C561.133 88.8686 561.641 88.7012 562.105 88.4762C562.57 88.2511 562.882 88.021 563.042 87.7859C563.207 87.5523 563.187 87.322 562.983 87.0951C562.788 86.8676 562.378 86.6508 561.753 86.4447L559.46 85.6885L548.352 91.0709L545.85 90.2457ZM560.56 95.2586C559.904 95.0421 559.423 94.7934 559.119 94.5126C558.823 94.2312 558.742 93.9337 558.875 93.6203C559.013 93.3083 559.403 92.9964 560.047 92.6846C560.601 92.4162 561.167 92.2299 561.745 92.1256C562.323 92.0212 562.907 91.978 563.497 91.9957C564.088 92.0135 564.672 92.0727 565.251 92.1732C565.838 92.2731 566.409 92.3937 566.963 92.535C567.63 92.7063 568.175 92.8428 568.6 92.9447C569.029 93.0444 569.38 93.0977 569.653 93.1045C569.935 93.1107 570.186 93.0601 570.408 92.9528L570.446 92.9342C570.928 92.7009 571.15 92.4706 571.113 92.2432C571.076 92.0159 570.774 91.8088 570.208 91.622C569.61 91.4248 569.012 91.3282 568.414 91.3323C567.821 91.3379 567.295 91.4022 566.837 91.5253L564.864 90.6249C565.641 90.3952 566.436 90.2515 567.25 90.1938C568.069 90.1341 568.877 90.1543 569.675 90.2545C570.478 90.3526 571.241 90.521 571.965 90.7597C572.464 90.9243 572.905 91.115 573.289 91.3317C573.673 91.5485 573.941 91.7863 574.095 92.0451C574.252 92.3018 574.238 92.5763 574.05 92.8684C573.867 93.162 573.45 93.4668 572.798 93.7827L566.228 96.9663L563.881 96.1923L565.229 95.5389L565.148 95.5122C564.727 95.5954 564.263 95.6503 563.754 95.677C563.255 95.703 562.73 95.6844 562.181 95.6212C561.64 95.5574 561.1 95.4365 560.56 95.2586ZM562.894 94.6439C563.384 94.8055 563.901 94.9012 564.444 94.931C564.991 94.9588 565.515 94.9302 566.015 94.8454C566.519 94.7619 566.953 94.6325 567.315 94.457L568.472 93.8965C568.336 93.9002 568.15 93.884 567.914 93.848C567.683 93.8135 567.436 93.7684 567.173 93.7129C566.91 93.6573 566.653 93.6004 566.403 93.5422C566.153 93.484 565.937 93.4334 565.753 93.3903C565.342 93.293 564.94 93.2226 564.545 93.1793C564.151 93.1361 563.775 93.1335 563.417 93.1715C563.063 93.2075 562.737 93.2977 562.439 93.4423C562.013 93.6487 561.855 93.8587 561.966 94.0722C562.077 94.2858 562.386 94.4763 562.894 94.6439ZM566.147 99.9377C565.815 99.828 565.532 99.714 565.3 99.5958C565.068 99.4812 564.901 99.381 564.799 99.2951L567.168 98.6086C567.425 98.7733 567.695 98.9005 567.978 98.9904C568.261 99.0802 568.589 99.1208 568.962 99.112C569.336 99.1068 569.782 99.0388 570.301 98.9081L571.04 98.7201L577.306 92.6254L579.896 93.4794L574.869 97.8591L574.977 97.8947L584.785 95.0918L587.381 95.9481L572.228 99.9131C571.515 100.101 570.813 100.232 570.123 100.307C569.429 100.383 568.752 100.393 568.093 100.335C567.434 100.281 566.786 100.148 566.147 99.9377ZM579.253 101.262L589.071 96.5052L591.404 97.2747L589.736 98.083L589.857 98.123C590.635 97.9217 591.432 97.8269 592.246 97.8387C593.065 97.8484 593.82 97.9675 594.513 98.1958C595.214 98.4271 595.643 98.7005 595.8 99.0161C595.966 99.3311 595.871 99.6554 595.515 99.989L595.623 100.025C596.398 99.836 597.219 99.7529 598.087 99.7754C598.964 99.7973 599.777 99.9321 600.528 100.18C601.481 100.494 601.973 100.889 602.005 101.364C602.036 101.84 601.505 102.342 600.41 102.873L593.82 106.066L591.372 105.259L597.604 102.239C598.213 101.944 598.487 101.672 598.427 101.423C598.371 101.172 598.095 100.965 597.601 100.802C597.012 100.607 596.376 100.54 595.694 100.6C595.021 100.659 594.407 100.822 593.853 101.091L587.73 104.058L585.336 103.268L591.664 100.202C592.171 99.9565 592.414 99.707 592.393 99.4536C592.376 99.2018 592.109 98.9906 591.592 98.8201C591.241 98.7044 590.837 98.6405 590.379 98.6282C589.925 98.6138 589.459 98.6528 588.981 98.7451C588.508 98.8353 588.069 98.9785 587.664 99.1746L581.695 102.067L579.253 101.262ZM600.691 108.488C599.652 108.145 598.96 107.751 598.613 107.303C598.276 106.855 598.282 106.382 598.631 105.883C598.985 105.382 599.676 104.883 600.703 104.385C601.712 103.896 602.801 103.533 603.968 103.297C605.145 103.061 606.312 102.96 607.471 102.995C608.634 103.028 609.71 103.208 610.699 103.534C611.338 103.745 611.842 103.991 612.213 104.273C612.592 104.554 612.797 104.864 612.828 105.204C612.864 105.546 612.695 105.91 612.32 106.296C611.95 106.681 611.334 107.081 610.474 107.499L609.764 107.842L601.274 105.042L602.833 104.287L608.984 106.315C609.422 106.099 609.715 105.874 609.863 105.642C610.014 105.407 610.013 105.183 609.858 104.969C609.707 104.756 609.398 104.573 608.931 104.419C608.432 104.254 607.878 104.165 607.27 104.152C606.667 104.137 606.074 104.184 605.492 104.294C604.919 104.404 604.411 104.564 603.967 104.775L602.606 105.435C602.035 105.711 601.655 105.985 601.466 106.256C601.282 106.525 601.279 106.777 601.457 107.013C601.64 107.246 601.996 107.451 602.527 107.626C602.882 107.743 603.25 107.826 603.632 107.876C604.017 107.923 604.41 107.936 604.808 107.915C605.207 107.894 605.599 107.834 605.984 107.735L608.02 108.605C607.306 108.834 606.533 108.985 605.702 109.058C604.88 109.131 604.039 109.121 603.18 109.028C602.325 108.933 601.495 108.753 600.691 108.488ZM615.747 108.613L609.995 111.4L607.554 110.595L617.371 105.838L619.704 106.608L618.036 107.416L618.158 107.456C618.945 107.269 619.762 107.182 620.607 107.197C621.457 107.214 622.269 107.35 623.042 107.605C623.757 107.84 624.235 108.116 624.476 108.431C624.721 108.748 624.715 109.088 624.457 109.451C624.204 109.815 623.684 110.186 622.895 110.564L616.644 113.593L614.203 112.788L620.096 109.933C620.752 109.615 621.086 109.307 621.097 109.009C621.112 108.712 620.805 108.46 620.176 108.252C619.749 108.111 619.279 108.029 618.768 108.006C618.265 107.983 617.753 108.02 617.232 108.119C616.715 108.219 616.22 108.384 615.747 108.613ZM634.116 111.361L632.326 112.228L626.371 110.264L628.161 109.397L634.116 111.361ZM631.983 108.742L634.425 109.547L625.208 114.013C624.897 114.164 624.708 114.296 624.64 114.409C624.582 114.521 624.606 114.619 624.713 114.703C624.819 114.787 624.974 114.862 625.176 114.929C625.329 114.979 625.479 115.02 625.626 115.051C625.778 115.084 625.896 115.107 625.981 115.121L624.583 116.133C624.41 116.111 624.177 116.072 623.883 116.017C623.593 115.963 623.271 115.881 622.917 115.771C622.288 115.578 621.825 115.354 621.526 115.099C621.232 114.843 621.146 114.568 621.267 114.275C621.393 113.983 621.765 113.689 622.383 113.394L631.983 108.742ZM641.601 115.942L639.146 115.32C639.296 115.196 639.386 115.063 639.416 114.92C639.451 114.779 639.395 114.637 639.249 114.495C639.104 114.354 638.842 114.221 638.464 114.096C637.956 113.928 637.425 113.838 636.87 113.825C636.319 113.814 635.88 113.889 635.552 114.052C635.262 114.189 635.14 114.337 635.186 114.498C635.236 114.661 635.467 114.856 635.878 115.086L637.287 115.842C638.067 116.262 638.478 116.656 638.52 117.024C638.566 117.393 638.24 117.749 637.541 118.091C636.919 118.389 636.183 118.59 635.332 118.695C634.49 118.799 633.604 118.805 632.675 118.713C631.745 118.622 630.849 118.434 629.986 118.149C628.718 117.731 627.949 117.273 627.678 116.774C627.412 116.273 627.656 115.78 628.411 115.293L631.009 115.973C630.674 116.223 630.569 116.461 630.693 116.686C630.818 116.911 631.162 117.116 631.724 117.302C632.304 117.493 632.882 117.592 633.458 117.598C634.039 117.606 634.496 117.529 634.828 117.368C635.11 117.232 635.227 117.081 635.181 116.917C635.14 116.754 634.93 116.57 634.551 116.365L633.136 115.612C632.338 115.19 631.933 114.787 631.921 114.405C631.913 114.021 632.27 113.656 632.99 113.311C633.59 113.016 634.288 112.819 635.081 112.72C635.884 112.621 636.722 112.616 637.594 112.706C638.475 112.795 639.329 112.976 640.156 113.249C641.37 113.649 642.08 114.083 642.287 114.55C642.499 115.019 642.27 115.483 641.601 115.942Z" fill="#C3C3C3"/>
<path d="M601.641 150.646L601.637 181.156" stroke="#C3C3C3" stroke-linecap="round"/>
<path d="M571.891 195.984L457.499 251.68L336.819 210.275L336.818 179.526L450.89 123.971L571.891 165.556L571.891 195.984Z" fill="#FEFDFC" stroke="#C3C3C3"/>
<path d="M571.616 165.463L457.53 220.742L337.111 179.383L450.891 123.973L571.616 165.463Z" fill="#F5F1E9" stroke="#C3C3C3"/>
<path d="M430.17 169.983L425.49 168.439L438.58 162.097L443.355 163.671C444.726 164.124 445.642 164.639 446.102 165.218C446.571 165.796 446.583 166.409 446.138 167.056C445.693 167.704 444.791 168.357 443.431 169.016C442.068 169.677 440.629 170.156 439.114 170.455C437.603 170.754 436.084 170.866 434.558 170.789C433.036 170.714 431.573 170.445 430.17 169.983ZM430.044 168.27L432.101 168.948C433.063 169.266 434.031 169.45 435.007 169.501C435.986 169.55 436.97 169.467 437.959 169.251C438.951 169.034 439.948 168.683 440.95 168.197C441.951 167.712 442.62 167.256 442.957 166.83C443.298 166.401 443.315 166.002 443.01 165.634C442.713 165.266 442.096 164.927 441.161 164.619L439.03 163.916L430.044 168.27ZM443.47 174.525C442.458 174.191 441.792 173.8 441.472 173.351C441.152 172.902 441.167 172.426 441.516 171.924C441.87 171.423 442.554 170.926 443.568 170.435C444.582 169.944 445.673 169.58 446.84 169.344C448.012 169.109 449.18 169.012 450.344 169.052C451.507 169.093 452.595 169.279 453.607 169.613C454.618 169.947 455.284 170.338 455.604 170.787C455.924 171.236 455.905 171.712 455.547 172.215C455.193 172.72 454.509 173.218 453.495 173.709C452.481 174.2 451.39 174.562 450.223 174.795C449.059 175.029 447.896 175.126 446.732 175.085C445.569 175.045 444.481 174.858 443.47 174.525ZM445.337 173.631C445.885 173.812 446.486 173.894 447.141 173.877C447.799 173.858 448.461 173.761 449.127 173.585C449.797 173.41 450.43 173.179 451.027 172.89C451.627 172.598 452.078 172.305 452.38 172.009C452.69 171.712 452.806 171.433 452.727 171.171C452.648 170.909 452.334 170.687 451.786 170.506C451.224 170.321 450.611 170.237 449.948 170.254C449.29 170.273 448.624 170.371 447.949 170.547C447.284 170.724 446.65 170.957 446.05 171.248C445.453 171.537 445.002 171.829 444.696 172.124C444.394 172.42 444.283 172.699 444.362 172.961C444.45 173.222 444.775 173.446 445.337 173.631ZM455.023 178.335C453.989 177.994 453.317 177.597 453.005 177.144C452.698 176.692 452.724 176.217 453.082 175.717C453.449 175.217 454.129 174.726 455.122 174.245C456.119 173.762 457.201 173.403 458.369 173.167C459.54 172.928 460.708 172.828 461.871 172.864C463.043 172.9 464.135 173.085 465.147 173.419C465.988 173.696 466.585 174.013 466.938 174.369C467.3 174.724 467.408 175.095 467.262 175.48C467.121 175.864 466.723 176.236 466.07 176.596L463.736 175.827C464.115 175.566 464.284 175.301 464.244 175.031C464.213 174.761 463.903 174.529 463.314 174.334C462.815 174.17 462.249 174.087 461.616 174.086C460.987 174.084 460.33 174.162 459.646 174.322C458.966 174.483 458.296 174.723 457.635 175.043C456.966 175.367 456.495 175.68 456.22 175.982C455.949 176.281 455.871 176.555 455.984 176.804C456.106 177.053 456.421 177.261 456.929 177.428C457.289 177.547 457.674 177.622 458.085 177.653C458.505 177.684 458.935 177.672 459.376 177.616C459.816 177.56 460.249 177.458 460.675 177.31L463.008 178.08C462.255 178.397 461.424 178.624 460.514 178.761C459.608 178.896 458.682 178.931 457.737 178.866C456.796 178.798 455.891 178.621 455.023 178.335ZM477.067 179.567L474.611 178.945C474.761 178.821 474.851 178.687 474.881 178.545C474.916 178.403 474.86 178.262 474.715 178.12C474.569 177.978 474.307 177.845 473.93 177.721C473.422 177.553 472.89 177.463 472.335 177.45C471.785 177.438 471.346 177.514 471.018 177.676C470.728 177.813 470.606 177.962 470.651 178.123C470.702 178.285 470.932 178.481 471.343 178.71L472.752 179.466C473.532 179.887 473.943 180.281 473.985 180.648C474.031 181.018 473.705 181.373 473.007 181.715C472.384 182.013 471.648 182.215 470.797 182.319C469.955 182.423 469.07 182.43 468.14 182.338C467.211 182.247 466.314 182.059 465.451 181.774C464.183 181.356 463.414 180.897 463.144 180.399C462.877 179.898 463.122 179.404 463.877 178.918L466.474 179.598C466.139 179.848 466.034 180.086 466.159 180.311C466.284 180.536 466.627 180.741 467.189 180.926C467.769 181.118 468.347 181.216 468.924 181.223C469.505 181.23 469.962 181.154 470.294 180.993C470.575 180.856 470.693 180.706 470.647 180.542C470.605 180.379 470.395 180.195 470.016 179.99L468.601 179.237C467.804 178.815 467.399 178.412 467.387 178.03C467.379 177.646 467.735 177.281 468.455 176.935C469.056 176.641 469.753 176.444 470.547 176.345C471.349 176.245 472.187 176.24 473.059 176.33C473.94 176.42 474.794 176.601 475.622 176.873C476.836 177.274 477.546 177.708 477.753 178.175C477.964 178.644 477.735 179.108 477.067 179.567Z" fill="#C3C3C3"/>
<path d="M457.477 220.986L457.473 251.496" stroke="#C3C3C3" stroke-linecap="round"/>
<path d="M429.102 265.806L314.71 321.502L194.03 280.097L194.029 249.348L308.101 193.793L429.102 235.378L429.102 265.806Z" fill="#FEFDFC" stroke="#C3C3C3"/>
<path d="M428.827 235.286L314.741 290.564L194.322 249.205L308.102 193.795L428.827 235.286Z" fill="#F5F1E9" stroke="#C3C3C3"/>
<path d="M280.809 235.87L295.208 228.894L305.089 232.152L302.903 233.212L295.774 230.861L291.865 232.755L298.482 234.937L296.295 235.996L289.678 233.814L285.748 235.718L292.936 238.089L290.75 239.149L280.809 235.87ZM293.38 240.016L304.179 234.783L306.745 235.63L304.91 236.519L305.044 236.563C305.9 236.341 306.776 236.237 307.672 236.25C308.572 236.261 309.403 236.392 310.165 236.643C310.936 236.897 311.409 237.198 311.581 237.545C311.764 237.892 311.659 238.249 311.268 238.615L311.386 238.655C312.239 238.447 313.142 238.356 314.097 238.38C315.061 238.405 315.956 238.553 316.782 238.825C317.83 239.171 318.372 239.605 318.406 240.128C318.441 240.651 317.856 241.204 316.651 241.788L309.403 245.3L306.71 244.412L313.565 241.091C314.235 240.766 314.537 240.467 314.471 240.193C314.409 239.917 314.106 239.689 313.562 239.509C312.914 239.296 312.215 239.222 311.465 239.287C310.724 239.352 310.049 239.532 309.44 239.827L302.704 243.091L300.071 242.222L307.031 238.85C307.589 238.58 307.856 238.305 307.833 238.027C307.814 237.75 307.521 237.517 306.952 237.33C306.566 237.202 306.122 237.132 305.618 237.119C305.118 237.103 304.606 237.146 304.081 237.247C303.56 237.346 303.077 237.504 302.632 237.72L296.065 240.901L293.38 240.016ZM315.188 247.386C314.466 247.147 313.937 246.874 313.603 246.565C313.277 246.255 313.188 245.928 313.334 245.583C313.486 245.24 313.915 244.897 314.623 244.554C315.233 244.259 315.855 244.054 316.491 243.939C317.127 243.824 317.769 243.777 318.419 243.796C319.068 243.816 319.711 243.881 320.347 243.992C320.993 244.102 321.621 244.234 322.231 244.39C322.965 244.578 323.565 244.728 324.032 244.84C324.503 244.95 324.889 245.009 325.19 245.016C325.5 245.023 325.777 244.967 326.02 244.849L326.063 244.829C326.592 244.572 326.837 244.319 326.796 244.069C326.755 243.819 326.423 243.591 325.8 243.385C325.142 243.168 324.485 243.062 323.827 243.067C323.175 243.073 322.596 243.144 322.093 243.279L319.923 242.289C320.777 242.036 321.651 241.878 322.547 241.814C323.447 241.749 324.336 241.771 325.214 241.881C326.097 241.989 326.937 242.174 327.733 242.437C328.282 242.618 328.767 242.828 329.189 243.066C329.612 243.304 329.907 243.566 330.076 243.851C330.249 244.133 330.233 244.435 330.027 244.756C329.826 245.079 329.367 245.415 328.65 245.762L321.422 249.264L318.841 248.413L320.324 247.694L320.235 247.664C319.772 247.756 319.261 247.816 318.701 247.846C318.152 247.874 317.575 247.854 316.97 247.784C316.376 247.714 315.781 247.581 315.188 247.386ZM317.755 246.709C318.295 246.887 318.863 246.992 319.46 247.025C320.062 247.056 320.638 247.024 321.188 246.931C321.743 246.839 322.22 246.697 322.618 246.504L323.891 245.887C323.741 245.891 323.537 245.874 323.278 245.834C323.023 245.796 322.752 245.746 322.462 245.685C322.173 245.624 321.89 245.562 321.615 245.498C321.34 245.434 321.102 245.378 320.9 245.33C320.448 245.223 320.005 245.146 319.572 245.098C319.138 245.051 318.724 245.048 318.33 245.09C317.941 245.129 317.582 245.229 317.254 245.388C316.786 245.615 316.612 245.846 316.734 246.081C316.856 246.315 317.197 246.525 317.755 246.709ZM324.122 250.154L334.921 244.922L337.607 245.808L326.808 251.04L324.122 250.154ZM337.804 244.625C337.379 244.484 337.147 244.299 337.107 244.068C337.072 243.836 337.245 243.627 337.624 243.443C338.009 243.257 338.488 243.15 339.062 243.121C339.64 243.091 340.142 243.146 340.567 243.286C340.998 243.428 341.228 243.614 341.257 243.846C341.297 244.076 341.124 244.284 340.74 244.471C340.36 244.655 339.881 244.762 339.303 244.793C338.734 244.822 338.234 244.767 337.804 244.625ZM346.653 245.86L332.254 252.836L329.569 251.951L343.968 244.974L346.653 245.86Z" fill="#C3C3C3"/>
<path d="M314.688 290.809L314.684 321.318" stroke="#C3C3C3" stroke-linecap="round"/>
<path d="M871.774 178.863L757.381 234.559L636.702 193.154L636.701 162.405L750.773 106.85L871.774 148.435L871.774 178.863Z" fill="#FEFDFC" stroke="#C3C3C3"/>
<path d="M871.499 148.342L757.412 203.621L636.994 162.262L750.774 106.852L871.499 148.342Z" fill="#F5F1E9" stroke="#C3C3C3"/>
<path d="M727.74 154.349L740.83 148.007L749.678 150.925L747.69 151.888L741.344 149.795L737.791 151.517L743.53 153.41L741.542 154.373L735.803 152.48L730.242 155.174L727.74 154.349ZM738.76 157.983L748.577 153.227L751.018 154.032L741.201 158.788L738.76 157.983ZM751.198 152.956C750.811 152.829 750.6 152.66 750.564 152.451C750.532 152.239 750.689 152.049 751.034 151.882C751.384 151.713 751.819 151.615 752.341 151.59C752.867 151.562 753.323 151.612 753.71 151.739C754.101 151.868 754.31 152.038 754.337 152.248C754.373 152.458 754.216 152.647 753.867 152.816C753.521 152.983 753.086 153.081 752.56 153.109C752.043 153.136 751.589 153.085 751.198 152.956ZM759.242 154.079L746.152 160.421L743.711 159.616L756.801 153.274L759.242 154.079ZM753.057 162.855C752.018 162.512 751.326 162.117 750.98 161.67C750.642 161.222 750.648 160.749 750.998 160.25C751.352 159.749 752.042 159.25 753.069 158.752C754.079 158.263 755.167 157.9 756.335 157.664C757.511 157.427 758.678 157.326 759.837 157.362C761 157.395 762.077 157.575 763.066 157.901C763.704 158.111 764.209 158.357 764.579 158.639C764.958 158.92 765.163 159.231 765.195 159.571C765.231 159.912 765.061 160.276 764.687 160.663C764.316 161.047 763.701 161.448 762.84 161.865L762.131 162.209L753.64 159.409L755.2 158.653L761.35 160.682C761.789 160.465 762.082 160.241 762.229 160.009C762.381 159.774 762.379 159.55 762.224 159.335C762.074 159.123 761.765 158.939 761.297 158.785C760.798 158.621 760.245 158.532 759.637 158.519C759.033 158.504 758.441 158.551 757.859 158.661C757.285 158.77 756.777 158.931 756.334 159.142L754.972 159.801C754.401 160.078 754.021 160.352 753.833 160.623C753.648 160.891 753.645 161.144 753.823 161.379C754.006 161.613 754.362 161.817 754.893 161.992C755.248 162.11 755.616 162.193 755.998 162.242C756.384 162.29 756.776 162.303 757.175 162.282C757.574 162.261 757.965 162.201 758.35 162.102L760.387 162.971C759.672 163.201 758.899 163.352 758.068 163.425C757.246 163.497 756.406 163.487 755.547 163.395C754.691 163.3 753.862 163.12 753.057 162.855ZM775.329 164.162L772.874 163.54C773.024 163.416 773.114 163.283 773.144 163.14C773.179 162.999 773.123 162.857 772.977 162.715C772.832 162.574 772.57 162.44 772.192 162.316C771.684 162.148 771.153 162.058 770.598 162.045C770.047 162.034 769.608 162.109 769.28 162.272C768.99 162.408 768.868 162.557 768.914 162.718C768.964 162.88 769.195 163.076 769.606 163.305L771.015 164.062C771.795 164.482 772.206 164.876 772.248 165.244C772.294 165.613 771.968 165.969 771.269 166.311C770.647 166.609 769.911 166.81 769.06 166.914C768.218 167.018 767.332 167.025 766.403 166.933C765.473 166.842 764.577 166.654 763.714 166.369C762.446 165.951 761.677 165.493 761.406 164.994C761.14 164.493 761.384 164 762.139 163.513L764.737 164.193C764.402 164.443 764.297 164.681 764.422 164.906C764.546 165.131 764.89 165.336 765.452 165.522C766.032 165.713 766.61 165.812 767.187 165.818C767.768 165.825 768.224 165.749 768.557 165.588C768.838 165.451 768.955 165.301 768.909 165.137C768.868 164.974 768.658 164.79 768.279 164.585L766.864 163.832C766.066 163.41 765.661 163.007 765.649 162.625C765.641 162.241 765.998 161.876 766.718 161.531C767.319 161.236 768.016 161.039 768.81 160.94C769.612 160.84 770.45 160.836 771.322 160.925C772.203 161.015 773.057 161.196 773.884 161.469C775.098 161.869 775.809 162.303 776.015 162.77C776.227 163.239 775.998 163.703 775.329 164.162Z" fill="#C3C3C3"/>
<path d="M757.359 203.865L757.356 234.375" stroke="#C3C3C3" stroke-linecap="round"/>
<path d="M727.618 249.203L613.225 304.899L492.546 263.493L492.545 232.745L606.617 177.19L727.617 218.775L727.618 249.203Z" fill="#FEFDFC" stroke="#C3C3C3"/>
<path d="M727.343 218.682L613.256 273.961L492.838 232.602L606.618 177.191L727.343 218.682Z" fill="#F5F1E9" stroke="#C3C3C3"/>
<path d="M587.907 214.828L589.895 213.865L600.914 217.499L598.927 218.463L594.658 217.055L583.556 222.434L581.074 221.616L592.176 216.236L587.907 214.828ZM591.214 225.121C590.558 224.905 590.077 224.656 589.773 224.375C589.477 224.094 589.396 223.796 589.529 223.483C589.667 223.171 590.057 222.859 590.701 222.547C591.255 222.279 591.821 222.092 592.399 221.988C592.976 221.884 593.561 221.84 594.151 221.858C594.742 221.876 595.326 221.935 595.904 222.036C596.492 222.136 597.062 222.256 597.617 222.397C598.284 222.569 598.829 222.705 599.254 222.807C599.683 222.907 600.034 222.96 600.307 222.967C600.588 222.973 600.84 222.923 601.062 222.815L601.1 222.797C601.582 222.563 601.804 222.333 601.767 222.106C601.73 221.878 601.428 221.671 600.862 221.484C600.264 221.287 599.666 221.191 599.068 221.195C598.475 221.2 597.949 221.265 597.491 221.388L595.518 220.487C596.295 220.258 597.09 220.114 597.904 220.056C598.722 219.997 599.531 220.017 600.329 220.117C601.131 220.215 601.895 220.383 602.618 220.622C603.118 220.787 603.559 220.977 603.943 221.194C604.326 221.411 604.595 221.649 604.749 221.908C604.906 222.164 604.891 222.439 604.704 222.731C604.521 223.024 604.104 223.329 603.452 223.645L596.881 226.829L594.535 226.055L595.883 225.401L595.802 225.375C595.381 225.458 594.916 225.513 594.408 225.539C593.908 225.565 593.384 225.547 592.834 225.484C592.294 225.42 591.754 225.299 591.214 225.121ZM593.548 224.506C594.038 224.668 594.555 224.764 595.098 224.793C595.645 224.821 596.168 224.793 596.668 224.708C597.173 224.624 597.606 224.495 597.969 224.319L599.125 223.759C598.989 223.763 598.804 223.746 598.568 223.71C598.337 223.676 598.09 223.631 597.827 223.575C597.564 223.52 597.307 223.463 597.057 223.405C596.807 223.346 596.59 223.296 596.407 223.253C595.996 223.155 595.593 223.085 595.199 223.042C594.805 222.998 594.429 222.996 594.071 223.034C593.717 223.07 593.391 223.16 593.093 223.305C592.666 223.511 592.509 223.721 592.62 223.935C592.731 224.148 593.04 224.339 593.548 224.506ZM614.746 226.839L612.29 226.216C612.44 226.092 612.53 225.959 612.56 225.816C612.595 225.675 612.539 225.533 612.394 225.392C612.248 225.25 611.986 225.117 611.609 224.992C611.101 224.825 610.569 224.734 610.014 224.721C609.464 224.71 609.025 224.785 608.697 224.948C608.407 225.085 608.285 225.234 608.33 225.395C608.381 225.557 608.611 225.753 609.022 225.982L610.431 226.738C611.211 227.158 611.622 227.552 611.664 227.92C611.71 228.289 611.384 228.645 610.686 228.987C610.063 229.285 609.327 229.486 608.476 229.591C607.634 229.695 606.749 229.701 605.819 229.61C604.89 229.518 603.993 229.33 603.13 229.046C601.862 228.627 601.093 228.169 600.822 227.67C600.556 227.17 600.801 226.676 601.556 226.189L604.153 226.869C603.818 227.12 603.713 227.357 603.838 227.582C603.963 227.807 604.306 228.013 604.868 228.198C605.448 228.389 606.026 228.488 606.603 228.494C607.184 228.502 607.641 228.425 607.973 228.264C608.254 228.128 608.372 227.978 608.326 227.813C608.284 227.65 608.074 227.466 607.695 227.262L606.28 226.509C605.483 226.086 605.078 225.684 605.066 225.301C605.058 224.917 605.414 224.552 606.134 224.207C606.735 223.912 607.432 223.716 608.226 223.616C609.028 223.517 609.866 223.512 610.738 223.602C611.619 223.691 612.473 223.872 613.301 224.145C614.515 224.545 615.225 224.979 615.432 225.446C615.643 225.915 615.414 226.379 614.746 226.839ZM615.065 230.317L617.851 228.961L618.242 229.09L625.908 228.407L628.761 229.348L619.35 230.179L618.844 230.012L615.065 230.317ZM609.759 231.075L622.849 224.733L625.29 225.538L612.2 231.881L609.759 231.075ZM616.26 233.219L617.355 229.943L620.631 229.696L619.18 234.182L616.26 233.219ZM635.98 233.842L633.524 233.219C633.675 233.095 633.765 232.962 633.795 232.819C633.829 232.678 633.774 232.536 633.628 232.395C633.483 232.253 633.221 232.12 632.843 231.995C632.335 231.828 631.804 231.737 631.249 231.724C630.698 231.713 630.259 231.788 629.931 231.951C629.641 232.088 629.519 232.237 629.565 232.397C629.615 232.56 629.846 232.756 630.257 232.985L631.666 233.741C632.446 234.161 632.857 234.555 632.898 234.923C632.945 235.292 632.619 235.648 631.92 235.99C631.298 236.288 630.561 236.489 629.711 236.594C628.869 236.698 627.983 236.704 627.054 236.613C626.124 236.521 625.228 236.333 624.364 236.049C623.097 235.63 622.327 235.172 622.057 234.673C621.791 234.173 622.035 233.679 622.79 233.192L625.388 233.872C625.053 234.122 624.948 234.36 625.072 234.585C625.197 234.81 625.541 235.016 626.103 235.201C626.683 235.392 627.261 235.491 627.837 235.497C628.418 235.505 628.875 235.428 629.207 235.267C629.489 235.131 629.606 234.981 629.56 234.816C629.519 234.653 629.309 234.469 628.93 234.265L627.515 233.512C626.717 233.089 626.312 232.687 626.3 232.304C626.292 231.92 626.648 231.555 627.369 231.21C627.969 230.915 628.667 230.718 629.46 230.619C630.263 230.52 631.1 230.515 631.973 230.605C632.854 230.694 633.708 230.875 634.535 231.148C635.749 231.548 636.459 231.982 636.666 232.449C636.878 232.918 636.649 233.382 635.98 233.842Z" fill="#C3C3C3"/>
<path d="M613.203 274.205L613.2 304.715" stroke="#C3C3C3" stroke-linecap="round"/>
<path d="M584.829 319.025L470.436 374.721L349.757 333.316L349.756 302.567L463.828 247.012L584.828 288.597L584.829 319.025Z" fill="#FEFDFC" stroke="#C3C3C3"/>
<path d="M584.554 288.504L470.467 343.783L350.049 302.424L463.829 247.014L584.554 288.504Z" fill="#F5F1E9" stroke="#C3C3C3"/>
<path d="M443.259 283.788L440.737 282.956C441.057 282.742 441.271 282.53 441.381 282.32C441.494 282.108 441.513 281.902 441.439 281.704C441.364 281.506 441.196 281.32 440.934 281.147C440.68 280.973 440.342 280.817 439.92 280.677C439.169 280.43 438.324 280.297 437.386 280.279C436.453 280.259 435.479 280.361 434.465 280.586C433.455 280.808 432.458 281.157 431.473 281.634C430.472 282.119 429.792 282.582 429.435 283.023C429.085 283.463 429.024 283.863 429.25 284.222C429.485 284.58 429.975 284.882 430.722 285.129C431.135 285.265 431.573 285.368 432.035 285.437C432.506 285.505 432.987 285.537 433.48 285.533C433.976 285.53 434.473 285.489 434.969 285.41C435.469 285.332 435.95 285.213 436.41 285.053L438.919 285.891C438.202 286.161 437.414 286.376 436.554 286.537C435.698 286.699 434.81 286.798 433.889 286.834C432.972 286.868 432.059 286.831 431.15 286.722C430.246 286.611 429.382 286.42 428.56 286.149C427.346 285.748 426.529 285.262 426.108 284.69C425.688 284.117 425.706 283.497 426.163 282.829C426.62 282.161 427.552 281.486 428.958 280.805C430.368 280.121 431.851 279.628 433.405 279.325C434.964 279.02 436.486 278.896 437.971 278.952C439.457 279.009 440.803 279.235 442.007 279.633C442.776 279.886 443.389 280.172 443.845 280.489C444.302 280.806 444.59 281.146 444.711 281.508C444.836 281.869 444.779 282.242 444.541 282.628C444.311 283.014 443.884 283.401 443.259 283.788ZM439.551 289.789C438.895 289.573 438.415 289.324 438.11 289.043C437.814 288.762 437.733 288.464 437.866 288.151C438.004 287.839 438.395 287.527 439.038 287.215C439.592 286.947 440.158 286.761 440.736 286.656C441.314 286.552 441.898 286.509 442.489 286.526C443.079 286.544 443.663 286.603 444.242 286.704C444.829 286.804 445.4 286.924 445.954 287.066C446.621 287.237 447.167 287.374 447.591 287.475C448.02 287.575 448.371 287.628 448.644 287.635C448.926 287.641 449.178 287.591 449.399 287.483L449.437 287.465C449.919 287.232 450.141 287.001 450.104 286.774C450.067 286.547 449.765 286.34 449.199 286.153C448.601 285.956 448.003 285.859 447.405 285.863C446.812 285.869 446.286 285.933 445.828 286.056L443.856 285.156C444.632 284.926 445.427 284.782 446.241 284.725C447.06 284.665 447.868 284.685 448.666 284.785C449.469 284.883 450.232 285.052 450.956 285.29C451.455 285.455 451.896 285.646 452.28 285.862C452.664 286.079 452.932 286.317 453.086 286.576C453.244 286.833 453.229 287.107 453.041 287.399C452.859 287.693 452.441 287.997 451.789 288.313L445.219 291.497L442.872 290.723L444.221 290.07L444.14 290.043C443.719 290.126 443.254 290.181 442.745 290.208C442.246 290.234 441.721 290.215 441.172 290.152C440.631 290.088 440.091 289.967 439.551 289.789ZM441.885 289.175C442.376 289.336 442.892 289.432 443.435 289.462C443.982 289.49 444.506 289.461 445.006 289.376C445.51 289.293 445.944 289.163 446.306 288.988L447.463 288.427C447.327 288.431 447.141 288.415 446.906 288.379C446.675 288.344 446.428 288.299 446.164 288.244C445.901 288.188 445.645 288.131 445.394 288.073C445.144 288.015 444.928 287.964 444.745 287.921C444.334 287.824 443.931 287.753 443.537 287.71C443.142 287.667 442.766 287.664 442.408 287.702C442.054 287.738 441.728 287.828 441.43 287.973C441.004 288.179 440.846 288.389 440.957 288.603C441.068 288.816 441.377 289.007 441.885 289.175ZM463.205 286.769L450.115 293.112L447.674 292.307L460.763 285.964L463.205 286.769ZM457.019 295.545C455.981 295.202 455.288 294.807 454.942 294.36C454.604 293.912 454.611 293.439 454.96 292.94C455.314 292.439 456.004 291.94 457.031 291.442C458.041 290.953 459.13 290.59 460.297 290.354C461.473 290.117 462.641 290.017 463.8 290.052C464.963 290.085 466.039 290.265 467.028 290.591C467.666 290.801 468.171 291.048 468.541 291.329C468.921 291.611 469.126 291.921 469.157 292.261C469.193 292.603 469.024 292.967 468.649 293.353C468.279 293.738 467.663 294.138 466.802 294.555L466.093 294.899L457.602 292.099L459.162 291.343L465.312 293.372C465.751 293.156 466.044 292.931 466.191 292.699C466.343 292.464 466.341 292.24 466.186 292.026C466.036 291.813 465.727 291.63 465.259 291.475C464.76 291.311 464.207 291.222 463.599 291.209C462.996 291.194 462.403 291.241 461.821 291.351C461.248 291.46 460.739 291.621 460.296 291.832L458.935 292.491C458.364 292.768 457.984 293.042 457.795 293.313C457.61 293.582 457.607 293.834 457.786 294.07C457.968 294.303 458.325 294.508 458.855 294.683C459.21 294.8 459.579 294.883 459.96 294.932C460.346 294.98 460.738 294.993 461.137 294.972C461.536 294.951 461.928 294.891 462.313 294.792L464.349 295.662C463.634 295.891 462.861 296.042 462.031 296.115C461.209 296.187 460.368 296.177 459.509 296.085C458.654 295.99 457.824 295.81 457.019 295.545ZM472.076 295.67L466.323 298.457L463.882 297.652L473.7 292.895L476.033 293.665L474.365 294.473L474.486 294.513C475.274 294.325 476.091 294.239 476.936 294.254C477.786 294.271 478.598 294.406 479.371 294.661C480.086 294.897 480.563 295.173 480.804 295.488C481.049 295.805 481.043 296.145 480.786 296.507C480.533 296.872 480.012 297.243 479.224 297.621L472.973 300.65L470.532 299.845L476.425 296.99C477.081 296.672 477.414 296.364 477.425 296.065C477.441 295.769 477.134 295.516 476.505 295.309C476.078 295.168 475.608 295.086 475.096 295.063C474.594 295.039 474.082 295.077 473.56 295.176C473.044 295.276 472.549 295.441 472.076 295.67ZM479.126 302.82C478.312 302.551 477.782 302.215 477.535 301.811C477.289 301.407 477.356 300.961 477.737 300.472C478.118 299.984 478.848 299.479 479.926 298.956C481.016 298.428 482.126 298.044 483.253 297.805C484.39 297.566 485.473 297.46 486.504 297.488C487.539 297.513 488.455 297.657 489.25 297.92C489.857 298.12 490.258 298.332 490.454 298.556C490.653 298.778 490.731 298.993 490.688 299.2C490.648 299.406 490.572 299.587 490.46 299.745L490.561 299.778L495.457 297.406L497.905 298.213L484.815 304.555L482.414 303.764L483.961 303.014L483.813 302.965C483.448 303.039 483.012 303.102 482.506 303.154C482.003 303.203 481.463 303.209 480.884 303.171C480.305 303.132 479.719 303.016 479.126 302.82ZM481.705 302.125C482.222 302.295 482.795 302.376 483.423 302.369C484.056 302.359 484.705 302.269 485.371 302.1C486.037 301.931 486.688 301.693 487.323 301.385C487.958 301.078 488.415 300.779 488.695 300.49C488.979 300.202 489.069 299.935 488.965 299.689C488.865 299.444 488.553 299.235 488.027 299.062C487.483 298.882 486.894 298.798 486.262 298.808C485.629 298.818 484.984 298.907 484.327 299.075C483.669 299.244 483.036 299.475 482.427 299.771C481.813 300.068 481.358 300.364 481.061 300.658C480.772 300.951 480.672 301.225 480.759 301.479C480.855 301.733 481.17 301.948 481.705 302.125ZM490.199 306.492C489.543 306.276 489.062 306.027 488.758 305.746C488.462 305.465 488.381 305.168 488.514 304.854C488.652 304.542 489.042 304.23 489.686 303.919C490.239 303.65 490.805 303.464 491.383 303.359C491.961 303.255 492.546 303.212 493.136 303.23C493.727 303.247 494.311 303.307 494.889 303.407C495.476 303.507 496.047 303.628 496.602 303.769C497.269 303.94 497.814 304.077 498.239 304.179C498.667 304.278 499.018 304.332 499.292 304.338C499.573 304.345 499.825 304.294 500.047 304.187L500.085 304.168C500.567 303.935 500.789 303.704 500.752 303.477C500.715 303.25 500.413 303.043 499.846 302.856C499.249 302.659 498.651 302.562 498.053 302.566C497.459 302.572 496.934 302.636 496.476 302.759L494.503 301.859C495.28 301.629 496.075 301.485 496.889 301.428C497.707 301.368 498.516 301.388 499.314 301.488C500.116 301.586 500.88 301.755 501.603 301.994C502.102 302.158 502.544 302.349 502.928 302.566C503.311 302.782 503.58 303.02 503.733 303.279C503.891 303.536 503.876 303.81 503.689 304.102C503.506 304.396 503.089 304.701 502.437 305.017L495.866 308.2L493.519 307.426L494.868 306.773L494.787 306.746C494.366 306.829 493.901 306.884 493.393 306.911C492.893 306.937 492.369 306.918 491.819 306.855C491.279 306.791 490.738 306.67 490.199 306.492ZM492.533 305.878C493.023 306.039 493.54 306.135 494.082 306.165C494.63 306.193 495.153 306.164 495.653 306.079C496.158 305.996 496.591 305.866 496.954 305.691L498.11 305.13C497.974 305.134 497.789 305.118 497.553 305.082C497.322 305.047 497.075 305.002 496.812 304.947C496.549 304.891 496.292 304.834 496.042 304.776C495.792 304.718 495.575 304.667 495.392 304.624C494.981 304.527 494.578 304.456 494.184 304.413C493.79 304.37 493.414 304.367 493.056 304.405C492.702 304.441 492.376 304.532 492.077 304.676C491.651 304.883 491.494 305.093 491.605 305.306C491.716 305.52 492.025 305.71 492.533 305.878ZM498.321 309.01L508.138 304.253L510.506 305.034L508.869 305.826L508.977 305.862C509.733 305.65 510.493 305.545 511.259 305.547C512.033 305.549 512.716 305.648 513.31 305.844C513.445 305.888 513.589 305.941 513.743 306.002C513.905 306.063 514.032 306.117 514.123 306.164L511.994 307.195C511.925 307.145 511.791 307.076 511.592 306.99C511.401 306.902 511.202 306.825 510.996 306.757C510.551 306.61 510.059 306.522 509.52 306.494C508.991 306.465 508.465 306.494 507.943 306.583C507.421 306.671 506.951 306.816 506.534 307.018L500.762 309.815L498.321 309.01Z" fill="#C3C3C3"/>
<path d="M470.422 344.027L470.419 374.537" stroke="#C3C3C3" stroke-linecap="round"/>
</svg>
