<svg width="927" height="381" viewBox="0 0 927 381" fill="none" xmlns="http://www.w3.org/2000/svg">
<path d="M882.144 180.188L476.267 377.894L49.3322 234.819L47.6123 196.878L461.203 180.874L461.268 180.872L461.332 180.867L882.145 147.556L882.144 180.188Z" fill="#FBF9F4" stroke="#929292" stroke-width="2"/>
<path d="M476.168 342.451L48.2084 196.285L460.921 14.6593L881.578 147.044L476.168 342.451Z" fill="#F4EDDD" stroke="#929292" stroke-width="2"/>
<line x1="476.172" y1="342.396" x2="476.172" y2="377.854" stroke="#CFCDC6" stroke-width="2"/>
<path d="M375.368 145.1L400.591 132.942L416.181 138.057L411.641 140.246L401.374 136.877L395.717 139.604L405.794 142.91L401.398 145.029L391.321 141.723L385.231 144.658L395.574 148.051L391.034 150.24L375.368 145.1ZM391.765 150.479L408.548 148.396L410.882 141.573L417.004 143.581L415.09 147.769L425.218 146.276L431.226 148.247L414.75 150.489L412.869 157.403L406.633 155.357L408.317 151.064L397.887 152.488L391.765 150.479ZM421.307 160.551C419.279 159.885 417.937 159.085 417.279 158.149C416.622 157.213 416.594 156.251 417.198 155.262C417.851 154.27 419.078 153.339 420.879 152.471C422.681 151.603 424.77 150.955 427.147 150.528C429.548 150.09 431.953 149.906 434.363 149.977C436.798 150.055 439.004 150.419 440.981 151.068C442.959 151.717 444.251 152.501 444.858 153.42C445.49 154.347 445.468 155.313 444.791 156.317C444.163 157.317 442.949 158.252 441.147 159.12C440.883 159.248 440.594 159.377 440.28 159.507C439.967 159.638 439.628 159.77 439.265 159.904L424.474 155.051C423.647 155.675 423.304 156.292 423.444 156.903C423.609 157.521 424.339 158.043 425.631 158.467C426.747 158.833 427.95 159.033 429.242 159.067C430.559 159.11 431.806 159.033 432.983 158.835L434.129 161.517C432.166 161.827 430.026 161.903 427.71 161.746C425.394 161.59 423.259 161.191 421.307 160.551ZM436.726 153.058C435.509 152.659 434.121 152.485 432.562 152.538C431.004 152.591 429.521 152.844 428.113 153.297L437.885 156.503C438.639 155.914 438.945 155.294 438.803 154.644C438.685 154.002 437.993 153.474 436.726 153.058ZM442.77 167.592C441.351 167.126 440.272 166.568 439.534 165.917C438.822 165.275 438.441 164.586 438.392 163.85C438.367 163.102 438.677 162.357 439.321 161.615C440.015 160.87 441.047 160.167 442.416 159.507C444.242 158.627 446.331 157.98 448.684 157.565C451.086 157.146 453.517 156.981 455.977 157.068C458.463 157.163 460.708 157.54 462.71 158.197C464.534 158.776 465.844 159.448 466.639 160.215C467.434 160.982 467.697 161.769 467.429 162.576L460.411 162.755C460.604 162.292 460.524 161.848 460.173 161.422C459.848 161.003 459.242 160.649 458.354 160.358C457.264 160 456.061 159.81 454.746 159.787C453.454 159.752 452.172 159.857 450.899 160.101C449.651 160.353 448.535 160.717 447.55 161.192C446.589 161.655 445.916 162.164 445.532 162.719C445.197 163.27 445.183 163.801 445.489 164.31C445.845 164.816 446.569 165.248 447.659 165.606C448.647 165.93 449.688 166.106 450.781 166.134C451.898 166.15 453.034 166.085 454.19 165.938L454.853 168.637C452.786 168.874 450.731 168.92 448.688 168.775C446.695 168.627 444.722 168.232 442.77 167.592ZM460.433 173.358C459.014 172.892 458.046 172.321 457.529 171.646C457.013 170.971 457.002 170.247 457.496 169.475C458.014 168.692 459.054 167.923 460.615 167.171L472.074 161.648L477.207 163.332L466.938 168.282C465.328 169.058 464.493 169.737 464.433 170.321C464.373 170.904 464.977 171.404 466.244 171.82C467.334 172.177 468.657 172.31 470.213 172.217C471.794 172.132 473.39 171.702 474.999 170.927L485.268 165.977L490.402 167.661L471.665 176.692L466.684 175.058L469.494 173.703C467.931 174.066 466.405 174.227 464.914 174.186C463.473 174.141 461.98 173.865 460.433 173.358ZM482.184 180.143C480.232 179.503 479.193 178.792 479.067 178.011C478.94 177.23 479.898 176.348 481.94 175.363L490.732 171.126L487.956 170.215L492.099 168.218L494.875 169.128L498.659 167.305L504.297 168.746L500.009 170.813L504.192 172.185L500.048 174.182L495.865 172.81L487.325 176.926C486.172 177.482 486.128 177.934 487.193 178.284L489.322 178.982L484.998 181.066L482.184 180.143ZM510.005 172.837C509.143 172.554 508.684 172.18 508.628 171.714C508.621 171.245 509.014 170.819 509.807 170.437C510.576 170.066 511.528 169.844 512.664 169.769C513.848 169.69 514.872 169.793 515.734 170.075C516.621 170.366 517.068 170.747 517.074 171.216C517.105 171.673 516.736 172.087 515.967 172.458C515.151 172.852 514.174 173.086 513.039 173.161C511.903 173.236 510.892 173.128 510.005 172.837ZM487.17 181.779L505.907 172.748L511.041 174.432L492.304 183.463L487.17 181.779ZM504.644 187.891C502.616 187.226 501.248 186.417 500.54 185.465C499.831 184.512 499.754 183.533 500.306 182.527C500.908 181.518 502.11 180.58 503.912 179.711C505.714 178.843 507.803 178.195 510.179 177.769C512.581 177.35 515.025 177.189 517.511 177.284C519.997 177.38 522.254 177.76 524.282 178.426C526.335 179.099 527.704 179.908 528.386 180.852C529.095 181.805 529.148 182.785 528.546 183.794C527.969 184.811 526.78 185.754 524.978 186.623C523.177 187.491 521.075 188.134 518.673 188.553C516.32 188.968 513.901 189.128 511.415 189.032C508.954 188.945 506.698 188.565 504.644 187.891ZM509.076 185.755C510.166 186.112 511.357 186.309 512.649 186.343C513.964 186.366 515.246 186.251 516.494 185.999C517.767 185.755 518.884 185.402 519.845 184.938C520.83 184.464 521.502 183.955 521.863 183.411C522.248 182.876 522.276 182.36 521.945 181.862C521.638 181.353 520.94 180.919 519.85 180.562C518.76 180.204 517.557 180.014 516.241 179.991C514.95 179.956 513.667 180.061 512.394 180.305C511.147 180.557 510.03 180.921 509.045 181.396C508.085 181.859 507.411 182.358 507.025 182.893C506.665 183.436 506.638 183.963 506.945 184.472C507.276 184.97 507.986 185.397 509.076 185.755ZM517.918 191.866L536.655 182.835L541.712 184.494L538.974 185.814C542.127 185.136 545.199 185.288 548.191 186.269C549.61 186.735 550.578 187.306 551.094 187.981C551.611 188.656 551.622 189.38 551.128 190.152C550.634 190.924 549.594 191.692 548.009 192.456L536.55 197.979L531.417 196.295L541.686 191.345C543.32 190.558 544.104 189.861 544.039 189.256C543.997 188.64 543.343 188.123 542.075 187.707C540.985 187.35 539.65 187.213 538.069 187.298C536.537 187.379 534.954 187.813 533.32 188.601L523.051 193.55L517.918 191.866Z" fill="#443218"/>
</svg>
