<svg width="893" height="370" viewBox="0 0 893 370" fill="none" xmlns="http://www.w3.org/2000/svg">
<path d="M546.906 71.617L433.748 126.713L314.37 85.7537L314.37 55.3371L427.21 0.381276L546.906 41.5177L546.906 71.617Z" fill="#FBF9F4" stroke="#929292"/>
<path d="M546.632 41.4235L433.778 96.1048L314.662 55.1923L427.211 0.38085L546.632 41.4235Z" fill="#F4EDDD" stroke="#929292"/>
<path d="M423.806 45.0085L421.284 44.1767C421.604 43.963 421.818 43.751 421.927 43.5407C422.041 43.3283 422.06 43.123 421.986 42.9249C421.911 42.7268 421.743 42.5411 421.48 42.3679C421.227 42.1941 420.889 42.0376 420.466 41.8982C419.716 41.6506 418.871 41.5178 417.933 41.5C417 41.4801 416.026 41.5822 415.012 41.8064C414.002 42.0285 413.004 42.378 412.02 42.8549C411.019 43.3401 410.339 43.803 409.981 44.2436C409.632 44.6837 409.571 45.0833 409.797 45.4424C410.032 45.8009 410.522 46.1032 411.269 46.3493C411.682 46.4857 412.12 46.5884 412.582 46.6575C413.053 46.726 413.534 46.7581 414.026 46.7539C414.523 46.7512 415.02 46.7102 415.516 46.6309C416.016 46.5531 416.497 46.4339 416.956 46.2733L419.466 47.1113C418.749 47.3816 417.961 47.597 417.101 47.7575C416.245 47.9194 415.357 48.0185 414.436 48.0548C413.519 48.089 412.606 48.0517 411.697 47.9428C410.793 47.8319 409.929 47.6408 409.107 47.3694C407.893 46.9691 407.075 46.4827 406.655 45.9103C406.235 45.3379 406.253 44.7177 406.71 44.0495C407.167 43.3814 408.099 42.7067 409.505 42.0253C410.915 41.342 412.398 40.8489 413.952 40.5461C415.51 40.2412 417.033 40.1169 418.518 40.1731C420.004 40.2294 421.349 40.4562 422.554 40.8536C423.323 41.1071 423.936 41.3924 424.392 41.7095C424.848 42.0265 425.137 42.3663 425.258 42.7288C425.383 43.0893 425.326 43.4627 425.088 43.8491C424.858 44.2349 424.431 44.6214 423.806 45.0085ZM417.424 49.9666L430.513 43.6242L435.693 45.3323C436.754 45.6822 437.469 46.0604 437.839 46.4669C438.214 46.8749 438.27 47.2925 438.008 47.7197C437.755 48.1462 437.21 48.5618 436.375 48.9665C435.536 49.3732 434.618 49.664 433.623 49.8388C432.636 50.0131 431.61 50.0616 430.545 49.9845C429.485 49.9054 428.424 49.6908 427.363 49.3409L423.674 48.1243L425.642 47.1705L428.994 48.2759C429.615 48.4805 430.204 48.6088 430.761 48.6608C431.323 48.7108 431.856 48.6905 432.36 48.6C432.873 48.5089 433.362 48.3508 433.826 48.1258C434.291 47.9008 434.59 47.6769 434.725 47.4541C434.864 47.2293 434.821 47.0104 434.596 46.7974C434.375 46.5822 433.952 46.3716 433.327 46.1655L431.034 45.4093L419.926 50.7918L417.424 49.9666ZM430.49 49.4458L427.978 53.4473L425.186 52.5265L427.759 48.545L430.49 49.4458ZM442.865 47.6975L445.926 48.7073L440.542 54.6553L440.703 54.7087L454.289 51.4651L457.35 52.4748L444.26 58.8173L441.86 58.0255L450.853 53.6682L450.724 53.6259L437.953 56.7059L436.159 56.1143L441.316 50.5074L441.188 50.4651L432.176 54.8318L429.775 54.04L442.865 47.6975Z" fill="#443218"/>
<path d="M433.727 96.3496L433.723 126.532" stroke="#929292" stroke-linecap="round"/>
<path d="M408.031 139.955L294.873 195.051L175.495 154.092L175.495 123.675L288.335 68.7192L408.031 109.856L408.031 139.955Z" fill="#FBF9F4" stroke="#929292"/>
<path d="M407.757 109.763L294.903 164.445L175.787 123.532L288.336 68.7207L407.757 109.763Z" fill="#F4EDDD" stroke="#929292"/>
<path d="M240.186 104.857L253.276 98.5143L258.455 100.222C259.516 100.572 260.219 100.957 260.563 101.376C260.912 101.796 260.943 102.226 260.655 102.666C260.376 103.104 259.821 103.525 258.99 103.928C258.151 104.335 257.219 104.634 256.194 104.827C255.169 105.02 254.104 105.087 253.001 105.029C251.902 104.968 250.82 104.762 249.754 104.411L246.322 103.279L248.271 102.334L251.367 103.355C251.987 103.56 252.597 103.678 253.197 103.709C253.798 103.74 254.371 103.7 254.918 103.589C255.469 103.48 255.977 103.312 256.441 103.087C256.906 102.862 257.218 102.632 257.379 102.397C257.543 102.163 257.524 101.933 257.32 101.706C257.124 101.479 256.714 101.262 256.089 101.056L253.796 100.299L242.688 105.682L240.186 104.857ZM254.897 109.87C254.24 109.653 253.76 109.404 253.455 109.124C253.16 108.842 253.078 108.545 253.212 108.231C253.349 107.919 253.74 107.607 254.383 107.296C254.937 107.027 255.503 106.841 256.081 106.737C256.659 106.632 257.243 106.589 257.834 106.607C258.424 106.625 259.009 106.684 259.587 106.784C260.174 106.884 260.745 107.005 261.3 107.146C261.966 107.317 262.512 107.454 262.936 107.556C263.365 107.655 263.716 107.709 263.989 107.716C264.271 107.722 264.523 107.671 264.744 107.564L264.783 107.545C265.264 107.312 265.486 107.082 265.449 106.854C265.412 106.627 265.11 106.42 264.544 106.233C263.946 106.036 263.348 105.939 262.75 105.943C262.157 105.949 261.631 106.013 261.173 106.136L259.201 105.236C259.977 105.006 260.772 104.863 261.587 104.805C262.405 104.745 263.213 104.765 264.012 104.865C264.814 104.964 265.577 105.132 266.301 105.371C266.8 105.535 267.241 105.726 267.625 105.943C268.009 106.16 268.278 106.397 268.431 106.656C268.589 106.913 268.574 107.187 268.387 107.479C268.204 107.773 267.786 108.078 267.134 108.394L260.564 111.577L258.217 110.803L259.566 110.15L259.485 110.123C259.064 110.206 258.599 110.261 258.091 110.288C257.591 110.314 257.066 110.295 256.517 110.232C255.976 110.168 255.436 110.048 254.897 109.87ZM257.231 109.255C257.721 109.416 258.237 109.512 258.78 109.542C259.327 109.57 259.851 109.541 260.351 109.456C260.856 109.373 261.289 109.244 261.651 109.068L262.808 108.507C262.672 108.511 262.486 108.495 262.251 108.459C262.02 108.424 261.773 108.379 261.509 108.324C261.246 108.268 260.99 108.211 260.74 108.153C260.489 108.095 260.273 108.044 260.09 108.001C259.679 107.904 259.276 107.834 258.882 107.79C258.487 107.747 258.111 107.744 257.753 107.783C257.399 107.819 257.073 107.909 256.775 108.053C256.349 108.26 256.191 108.47 256.302 108.683C256.413 108.897 256.723 109.087 257.231 109.255ZM260.484 114.549C260.151 114.439 259.868 114.325 259.636 114.207C259.404 114.092 259.237 113.992 259.135 113.906L261.504 113.22C261.761 113.384 262.031 113.512 262.314 113.601C262.597 113.691 262.925 113.732 263.298 113.723C263.672 113.718 264.118 113.65 264.637 113.519L265.377 113.331L271.642 107.236L274.232 108.09L269.205 112.47L269.313 112.506L279.121 109.703L281.718 110.559L266.564 114.524C265.851 114.712 265.149 114.844 264.459 114.918C263.765 114.994 263.089 115.004 262.429 114.946C261.771 114.892 261.122 114.759 260.484 114.549ZM273.59 115.873L283.407 111.116L285.74 111.886L284.072 112.694L284.193 112.734C284.972 112.533 285.768 112.438 286.582 112.45C287.401 112.46 288.156 112.579 288.849 112.807C289.55 113.038 289.979 113.312 290.137 113.627C290.303 113.942 290.208 114.266 289.851 114.6L289.959 114.636C290.734 114.447 291.555 114.364 292.423 114.386C293.3 114.408 294.113 114.543 294.864 114.791C295.817 115.105 296.31 115.5 296.341 115.975C296.373 116.451 295.841 116.954 294.746 117.484L288.156 120.677L285.708 119.87L291.94 116.85C292.549 116.555 292.824 116.283 292.763 116.034C292.707 115.783 292.432 115.576 291.937 115.413C291.348 115.219 290.713 115.151 290.03 115.211C289.357 115.27 288.743 115.434 288.19 115.702L282.066 118.669L279.672 117.879L286 114.813C286.507 114.568 286.75 114.318 286.729 114.065C286.712 113.813 286.445 113.602 285.928 113.431C285.578 113.316 285.173 113.252 284.715 113.239C284.261 113.225 283.795 113.264 283.318 113.356C282.844 113.446 282.405 113.59 282 113.786L276.031 116.678L273.59 115.873ZM295.027 123.099C293.988 122.757 293.296 122.362 292.95 121.914C292.612 121.467 292.618 120.993 292.968 120.494C293.322 119.993 294.012 119.494 295.039 118.997C296.049 118.507 297.137 118.144 298.305 117.908C299.481 117.672 300.648 117.571 301.807 117.606C302.97 117.639 304.046 117.819 305.036 118.145C305.674 118.356 306.178 118.602 306.549 118.884C306.928 119.165 307.133 119.475 307.165 119.815C307.201 120.157 307.031 120.521 306.657 120.907C306.286 121.292 305.671 121.693 304.81 122.11L304.1 122.453L295.61 119.653L297.17 118.898L303.32 120.926C303.759 120.71 304.052 120.485 304.199 120.253C304.35 120.018 304.349 119.794 304.194 119.58C304.043 119.367 303.734 119.184 303.267 119.03C302.768 118.865 302.214 118.776 301.607 118.763C301.003 118.748 300.41 118.795 299.828 118.905C299.255 119.015 298.747 119.175 298.304 119.386L296.942 120.046C296.371 120.322 295.991 120.596 295.803 120.867C295.618 121.136 295.615 121.388 295.793 121.624C295.976 121.858 296.332 122.062 296.863 122.237C297.218 122.354 297.586 122.437 297.968 122.487C298.354 122.534 298.746 122.547 299.145 122.526C299.543 122.505 299.935 122.445 300.32 122.347L302.357 123.216C301.642 123.445 300.869 123.596 300.038 123.669C299.216 123.742 298.376 123.732 297.516 123.639C296.661 123.545 295.832 123.365 295.027 123.099ZM310.083 123.224L304.331 126.011L301.89 125.206L311.707 120.45L314.041 121.219L312.372 122.027L312.494 122.067C313.282 121.88 314.098 121.793 314.944 121.808C315.794 121.825 316.605 121.961 317.378 122.216C318.093 122.452 318.571 122.727 318.812 123.042C319.057 123.359 319.051 123.699 318.794 124.062C318.541 124.426 318.02 124.797 317.231 125.176L310.98 128.204L308.539 127.399L314.432 124.544C315.088 124.226 315.422 123.918 315.433 123.62C315.449 123.323 315.142 123.071 314.512 122.863C314.085 122.722 313.616 122.64 313.104 122.617C312.601 122.594 312.089 122.631 311.568 122.73C311.051 122.83 310.556 122.995 310.083 123.224ZM328.452 125.972L326.662 126.839L320.708 124.875L322.497 124.008L328.452 125.972ZM326.319 123.353L328.761 124.158L319.544 128.624C319.233 128.775 319.044 128.907 318.977 129.02C318.918 129.132 318.942 129.231 319.049 129.314C319.156 129.398 319.31 129.473 319.512 129.54C319.665 129.59 319.815 129.631 319.963 129.662C320.114 129.695 320.232 129.718 320.317 129.732L318.919 130.745C318.746 130.722 318.513 130.683 318.219 130.628C317.93 130.574 317.608 130.492 317.253 130.382C316.624 130.189 316.161 129.965 315.863 129.71C315.569 129.454 315.482 129.179 315.604 128.886C315.729 128.594 316.101 128.301 316.719 128.005L326.319 123.353ZM335.937 130.554L333.482 129.931C333.632 129.807 333.722 129.674 333.752 129.531C333.787 129.39 333.731 129.248 333.586 129.107C333.44 128.965 333.178 128.832 332.8 128.707C332.292 128.54 331.761 128.449 331.206 128.436C330.655 128.425 330.216 128.5 329.888 128.663C329.598 128.8 329.476 128.949 329.522 129.109C329.573 129.272 329.803 129.468 330.214 129.697L331.623 130.453C332.403 130.873 332.814 131.267 332.856 131.635C332.902 132.004 332.576 132.36 331.878 132.702C331.255 133 330.519 133.201 329.668 133.306C328.826 133.41 327.941 133.416 327.011 133.325C326.081 133.233 325.185 133.045 324.322 132.76C323.054 132.342 322.285 131.884 322.014 131.385C321.748 130.885 321.992 130.391 322.747 129.904L325.345 130.584C325.01 130.834 324.905 131.072 325.03 131.297C325.155 131.522 325.498 131.727 326.06 131.913C326.64 132.104 327.218 132.203 327.795 132.209C328.376 132.217 328.832 132.14 329.165 131.979C329.446 131.843 329.563 131.692 329.517 131.528C329.476 131.365 329.266 131.181 328.887 130.977L327.472 130.224C326.674 129.801 326.269 129.399 326.257 129.016C326.25 128.632 326.606 128.267 327.326 127.922C327.927 127.627 328.624 127.43 329.418 127.331C330.22 127.232 331.058 127.227 331.93 127.317C332.811 127.406 333.665 127.587 334.492 127.86C335.706 128.26 336.417 128.694 336.624 129.161C336.835 129.63 336.606 130.094 335.937 130.554Z" fill="#443218"/>
<path d="M294.852 164.688L294.848 194.87" stroke="#929292" stroke-linecap="round"/>
<path d="M271.176 208.368L157.39 263.77L37.334 222.578L37.334 191.939L150.803 136.677L271.176 178.045L271.176 208.368Z" fill="#FBF9F4"/>
<path d="M270.523 208.293L157.365 263.389L37.9868 222.429L37.9869 192.013L150.828 137.057L270.523 178.194L270.523 208.293Z" stroke="#929292" stroke-opacity="0.9"/>
<path d="M270.249 178.101L157.395 232.783L38.2793 191.87L150.829 137.059L270.249 178.101Z" fill="#F4EDDD" stroke="#929292"/>
<path d="M130.317 173.952C130.837 173.646 131.015 173.333 130.851 173.013C130.691 172.694 130.222 172.407 129.443 172.15C128.896 171.969 128.348 171.852 127.799 171.799C127.251 171.745 126.738 171.75 126.262 171.811C125.786 171.873 125.373 171.986 125.024 172.152C124.738 172.29 124.558 172.433 124.485 172.58C124.416 172.729 124.428 172.879 124.521 173.03C124.619 173.178 124.765 173.325 124.959 173.469C125.153 173.613 125.366 173.751 125.596 173.881L126.633 174.486C127.06 174.725 127.423 174.978 127.722 175.244C128.027 175.512 128.223 175.788 128.311 176.072C128.403 176.357 128.346 176.646 128.139 176.939C127.933 177.231 127.532 177.522 126.937 177.81C126.131 178.2 125.205 178.472 124.158 178.626C123.115 178.778 122.011 178.801 120.845 178.697C119.688 178.593 118.529 178.349 117.368 177.966C116.239 177.594 115.425 177.191 114.926 176.756C114.431 176.323 114.267 175.876 114.435 175.414C114.608 174.954 115.132 174.496 116.007 174.041L118.591 174.894C118.15 175.138 117.908 175.383 117.864 175.627C117.82 175.871 117.939 176.103 118.222 176.324C118.509 176.546 118.926 176.748 119.474 176.928C120.045 177.117 120.626 177.243 121.217 177.306C121.816 177.369 122.385 177.371 122.921 177.311C123.462 177.249 123.931 177.123 124.33 176.934C124.683 176.759 124.867 176.579 124.883 176.395C124.903 176.208 124.795 176.013 124.56 175.808C124.334 175.602 124.024 175.383 123.63 175.151L122.383 174.412C121.479 173.877 120.976 173.352 120.872 172.837C120.778 172.321 121.223 171.825 122.207 171.348C123.017 170.956 123.958 170.689 125.029 170.546C126.105 170.406 127.212 170.386 128.35 170.488C129.492 170.588 130.571 170.806 131.586 171.14C132.615 171.48 133.347 171.859 133.781 172.28C134.224 172.699 134.368 173.127 134.212 173.564C134.061 173.999 133.605 174.406 132.845 174.786L130.317 173.952ZM136.574 180.6L142.547 177.706L145.11 178.552L134.802 183.546L132.317 182.727L134.149 181.839L134.035 181.802C133.213 182 132.337 182.096 131.409 182.088C130.485 182.082 129.614 181.945 128.798 181.676C128.085 181.44 127.604 181.16 127.357 180.834C127.118 180.508 127.134 180.154 127.404 179.773C127.679 179.39 128.228 178.999 129.051 178.6L135.615 175.42L138.178 176.266L131.99 179.264C131.337 179.58 131.007 179.894 131 180.205C130.993 180.516 131.296 180.773 131.91 180.975C132.287 181.099 132.74 181.178 133.269 181.21C133.798 181.242 134.347 181.212 134.918 181.12C135.499 181.027 136.051 180.854 136.574 180.6ZM133.572 186.289L147.746 179.421L150.267 180.252L148.562 181.078L148.711 181.127C149.094 181.05 149.546 180.982 150.069 180.925C150.596 180.866 151.166 180.855 151.778 180.893C152.394 180.928 153.021 181.051 153.658 181.262C154.499 181.539 155.053 181.887 155.321 182.307C155.598 182.726 155.539 183.193 155.143 183.708C154.757 184.222 153.991 184.756 152.846 185.311C151.714 185.859 150.556 186.261 149.373 186.515C148.189 186.77 147.051 186.887 145.96 186.866C144.869 186.845 143.896 186.693 143.042 186.411C142.419 186.206 142 185.988 141.786 185.757C141.573 185.526 141.479 185.302 141.506 185.085C141.543 184.868 141.618 184.676 141.731 184.509L141.625 184.474L136.136 187.134L133.572 186.289ZM145.106 182.747C144.439 183.07 143.954 183.386 143.652 183.694C143.353 184.004 143.252 184.289 143.348 184.55C143.453 184.811 143.777 185.031 144.32 185.21C144.886 185.397 145.504 185.484 146.173 185.471C146.846 185.456 147.53 185.359 148.224 185.18C148.928 185.001 149.602 184.755 150.247 184.443C150.886 184.133 151.358 183.826 151.661 183.521C151.964 183.217 152.065 182.933 151.965 182.67C151.864 182.408 151.528 182.182 150.957 181.994C150.41 181.813 149.808 181.726 149.153 181.732C148.498 181.738 147.825 181.828 147.134 182.001C146.449 182.176 145.772 182.424 145.106 182.747ZM146.035 190.399L160.209 183.531L162.729 184.362L161.025 185.188L161.174 185.237C161.556 185.16 162.009 185.092 162.532 185.035C163.059 184.976 163.628 184.965 164.24 185.003C164.857 185.039 165.484 185.161 166.121 185.372C166.961 185.649 167.515 185.997 167.783 186.417C168.06 186.836 168.001 187.303 167.606 187.818C167.22 188.332 166.454 188.866 165.309 189.421C164.177 189.97 163.019 190.371 161.835 190.626C160.651 190.88 159.514 190.997 158.423 190.976C157.332 190.955 156.359 190.803 155.504 190.522C154.881 190.316 154.463 190.098 154.249 189.867C154.035 189.636 153.942 189.412 153.969 189.195C154.005 188.978 154.08 188.786 154.194 188.619L154.088 188.584L148.598 191.244L146.035 190.399ZM157.568 186.857C156.902 187.18 156.417 187.496 156.114 187.804C155.816 188.114 155.715 188.399 155.811 188.661C155.916 188.921 156.239 189.141 156.782 189.32C157.349 189.507 157.966 189.594 158.635 189.581C159.308 189.566 159.992 189.469 160.687 189.29C161.391 189.111 162.065 188.865 162.709 188.553C163.349 188.243 163.82 187.936 164.123 187.631C164.426 187.327 164.528 187.043 164.427 186.78C164.327 186.518 163.991 186.292 163.42 186.104C162.872 185.923 162.271 185.836 161.615 185.842C160.96 185.848 160.287 185.938 159.597 186.111C158.911 186.286 158.235 186.534 157.568 186.857ZM166.906 194.298C165.844 193.948 165.145 193.537 164.809 193.065C164.473 192.594 164.488 192.094 164.855 191.567C165.226 191.041 165.945 190.52 167.009 190.004C168.074 189.488 169.22 189.106 170.445 188.858C171.676 188.612 172.902 188.51 174.124 188.552C175.345 188.594 176.487 188.79 177.55 189.141C178.612 189.491 179.311 189.902 179.647 190.373C179.983 190.845 179.963 191.345 179.587 191.873C179.215 192.403 178.497 192.925 177.433 193.441C176.368 193.957 175.222 194.337 173.996 194.582C172.775 194.827 171.554 194.929 170.332 194.887C169.11 194.845 167.968 194.648 166.906 194.298ZM168.866 193.36C169.442 193.55 170.074 193.636 170.76 193.618C171.452 193.598 172.147 193.496 172.846 193.311C173.549 193.128 174.214 192.885 174.841 192.581C175.471 192.275 175.945 191.967 176.262 191.656C176.587 191.345 176.709 191.051 176.626 190.776C176.543 190.501 176.214 190.269 175.638 190.079C175.048 189.884 174.405 189.796 173.709 189.814C173.017 189.834 172.317 189.936 171.609 190.122C170.911 190.307 170.246 190.552 169.615 190.858C168.988 191.161 168.515 191.468 168.193 191.777C167.877 192.088 167.76 192.381 167.843 192.656C167.935 192.931 168.276 193.165 168.866 193.36ZM174.494 196.637L184.803 191.642L187.288 192.462L185.57 193.294L185.683 193.332C186.477 193.109 187.275 192.999 188.079 193.001C188.892 193.003 189.61 193.107 190.233 193.313C190.374 193.359 190.526 193.415 190.687 193.479C190.857 193.542 190.99 193.599 191.086 193.649L188.851 194.732C188.779 194.678 188.638 194.606 188.428 194.516C188.228 194.424 188.02 194.343 187.803 194.271C187.335 194.117 186.819 194.025 186.254 193.995C185.698 193.965 185.145 193.996 184.597 194.088C184.05 194.181 183.556 194.333 183.118 194.546L177.058 197.482L174.494 196.637ZM198.724 196.233L196.845 197.144L190.592 195.082L192.471 194.171L198.724 196.233ZM196.485 193.484L199.048 194.329L189.371 199.018C189.044 199.176 188.845 199.315 188.775 199.434C188.713 199.552 188.739 199.655 188.851 199.743C188.963 199.831 189.125 199.91 189.337 199.98C189.498 200.033 189.655 200.076 189.81 200.108C189.969 200.143 190.093 200.167 190.182 200.182L188.715 201.245C188.533 201.221 188.288 201.18 187.979 201.122C187.675 201.066 187.337 200.98 186.965 200.864C186.305 200.661 185.818 200.426 185.505 200.159C185.196 199.889 185.106 199.601 185.233 199.293C185.365 198.987 185.756 198.678 186.405 198.368L196.485 193.484Z" fill="#443218"/>
<path d="M157.344 233.027L157.341 263.21" stroke="#929292" stroke-linecap="round"/>
<path d="M700.898 124.299L587.74 179.394L468.362 138.435L468.362 108.019L581.203 53.0629L700.898 94.1994L700.898 124.299Z" fill="#FBF9F4" stroke="#929292"/>
<path d="M700.624 94.1071L587.77 148.788L468.654 107.876L581.204 53.0644L700.624 94.1071Z" fill="#F4EDDD" stroke="#929292"/>
<path d="M555.287 94.7321L568.377 88.3897L577.36 91.3521L575.372 92.3153L568.891 90.1779L565.337 91.8998L571.353 93.8837L569.365 94.8468L563.35 92.863L559.777 94.5941L566.312 96.7492L564.324 97.7124L555.287 94.7321ZM566.714 98.5008L576.532 93.744L578.865 94.5135L577.197 95.3218L577.318 95.3618C578.097 95.1605 578.893 95.0657 579.707 95.0775C580.526 95.0872 581.281 95.2063 581.974 95.4346C582.675 95.6659 583.104 95.9393 583.262 96.2549C583.428 96.5699 583.333 96.8942 582.976 97.2278L583.084 97.2634C583.859 97.0747 584.68 96.9917 585.548 97.0142C586.425 97.0361 587.238 97.1709 587.989 97.4185C588.942 97.7328 589.435 98.1276 589.466 98.603C589.498 99.0783 588.966 99.5813 587.871 100.112L581.281 103.305L578.833 102.497L585.065 99.478C585.674 99.1827 585.949 98.9106 585.888 98.6617C585.832 98.4107 585.556 98.2036 585.062 98.0405C584.473 97.8463 583.837 97.779 583.155 97.8385C582.482 97.8975 581.868 98.0612 581.314 98.3296L575.191 101.296L572.797 100.507L579.125 97.441C579.632 97.1953 579.875 96.9458 579.854 96.6924C579.837 96.4406 579.57 96.2294 579.053 96.0589C578.703 95.9432 578.298 95.8793 577.84 95.8669C577.386 95.8526 576.92 95.8915 576.443 95.9838C575.969 96.0741 575.53 96.2173 575.125 96.4134L569.156 99.3059L566.714 98.5008ZM586.54 105.201C585.884 104.984 585.403 104.735 585.099 104.455C584.803 104.173 584.722 103.876 584.855 103.562C584.993 103.25 585.383 102.938 586.027 102.627C586.581 102.358 587.147 102.172 587.725 102.068C588.303 101.963 588.887 101.92 589.477 101.938C590.068 101.956 590.652 102.015 591.231 102.115C591.818 102.215 592.389 102.336 592.943 102.477C593.61 102.648 594.155 102.785 594.58 102.887C595.009 102.986 595.36 103.04 595.633 103.047C595.915 103.053 596.166 103.002 596.388 102.895L596.426 102.876C596.908 102.643 597.13 102.413 597.093 102.185C597.056 101.958 596.754 101.751 596.188 101.564C595.59 101.367 594.992 101.27 594.394 101.274C593.801 101.28 593.275 101.344 592.817 101.467L590.845 100.567C591.621 100.337 592.416 100.194 593.23 100.136C594.049 100.076 594.857 100.096 595.655 100.197C596.458 100.295 597.221 100.463 597.945 100.702C598.444 100.866 598.885 101.057 599.269 101.274C599.653 101.491 599.921 101.728 600.075 101.987C600.232 102.244 600.218 102.518 600.03 102.81C599.847 103.104 599.43 103.409 598.778 103.725L592.208 106.908L589.861 106.134L591.209 105.481L591.128 105.454C590.707 105.537 590.243 105.592 589.734 105.619C589.235 105.645 588.71 105.626 588.161 105.563C587.62 105.499 587.08 105.379 586.54 105.201ZM588.874 104.586C589.364 104.748 589.881 104.843 590.424 104.873C590.971 104.901 591.495 104.872 591.995 104.787C592.499 104.704 592.933 104.575 593.295 104.399L594.452 103.839C594.316 103.842 594.13 103.826 593.894 103.79C593.663 103.756 593.416 103.71 593.153 103.655C592.89 103.599 592.633 103.542 592.383 103.484C592.133 103.426 591.917 103.375 591.733 103.332C591.322 103.235 590.92 103.165 590.525 103.121C590.131 103.078 589.755 103.075 589.397 103.114C589.043 103.15 588.717 103.24 588.419 103.384C587.993 103.591 587.835 103.801 587.946 104.014C588.057 104.228 588.366 104.418 588.874 104.586ZM594.662 107.718L604.48 102.961L606.921 103.766L597.104 108.523L594.662 107.718ZM607.1 102.691C606.714 102.563 606.503 102.395 606.467 102.185C606.435 101.973 606.592 101.784 606.937 101.617C607.286 101.447 607.722 101.35 608.244 101.324C608.769 101.296 609.226 101.346 609.612 101.474C610.003 101.603 610.213 101.772 610.24 101.982C610.276 102.192 610.119 102.381 609.769 102.551C609.424 102.718 608.989 102.816 608.463 102.843C607.946 102.871 607.492 102.82 607.1 102.691ZM615.145 103.814L602.055 110.156L599.614 109.351L612.704 103.008L615.145 103.814Z" fill="#443218"/>
<path d="M587.719 149.031L587.716 179.214" stroke="#929292" stroke-linecap="round"/>
<path d="M562.007 192.637L448.849 247.732L329.471 206.773L329.471 176.357L442.312 121.401L562.008 162.537L562.007 192.637Z" fill="#FBF9F4" stroke="#929292"/>
<path d="M561.733 162.445L448.88 217.126L329.764 176.214L442.313 121.402L561.733 162.445Z" fill="#F4EDDD" stroke="#929292"/>
<path d="M417.021 165.48L430.111 159.138L438.959 162.056L436.971 163.019L430.625 160.926L427.072 162.648L432.811 164.541L430.823 165.504L425.084 163.611L419.523 166.305L417.021 165.48ZM428.041 169.114L437.858 164.357L440.299 165.163L430.482 169.919L428.041 169.114ZM440.479 164.087C440.092 163.96 439.881 163.791 439.845 163.581C439.814 163.37 439.97 163.18 440.315 163.013C440.665 162.844 441.1 162.746 441.622 162.72C442.148 162.693 442.604 162.743 442.991 162.87C443.382 162.999 443.591 163.169 443.618 163.379C443.654 163.588 443.497 163.778 443.148 163.947C442.803 164.114 442.367 164.212 441.841 164.24C441.324 164.267 440.87 164.216 440.479 164.087ZM448.524 165.21L435.434 171.552L432.992 170.747L446.082 164.405L448.524 165.21ZM442.338 173.986C441.3 173.643 440.607 173.248 440.261 172.801C439.923 172.353 439.929 171.88 440.279 171.381C440.633 170.88 441.323 170.381 442.35 169.883C443.36 169.394 444.449 169.031 445.616 168.795C446.792 168.558 447.96 168.457 449.118 168.493C450.282 168.526 451.358 168.705 452.347 169.032C452.985 169.242 453.49 169.488 453.86 169.77C454.239 170.051 454.445 170.362 454.476 170.702C454.512 171.043 454.342 171.407 453.968 171.794C453.597 172.178 452.982 172.579 452.121 172.996L451.412 173.34L442.921 170.54L444.481 169.784L450.631 171.813C451.07 171.596 451.363 171.372 451.51 171.14C451.662 170.905 451.66 170.681 451.505 170.466C451.355 170.254 451.046 170.07 450.578 169.916C450.079 169.752 449.526 169.663 448.918 169.65C448.315 169.635 447.722 169.682 447.14 169.792C446.567 169.901 446.058 170.061 445.615 170.273L444.253 170.932C443.682 171.209 443.303 171.483 443.114 171.754C442.929 172.022 442.926 172.275 443.105 172.51C443.287 172.744 443.644 172.948 444.174 173.123C444.529 173.241 444.898 173.324 445.279 173.373C445.665 173.421 446.057 173.434 446.456 173.413C446.855 173.392 447.247 173.332 447.631 173.233L449.668 174.102C448.953 174.332 448.18 174.483 447.35 174.556C446.528 174.628 445.687 174.618 444.828 174.526C443.973 174.431 443.143 174.251 442.338 173.986ZM464.611 175.293L462.155 174.671C462.305 174.547 462.395 174.414 462.425 174.271C462.46 174.13 462.404 173.988 462.259 173.846C462.113 173.705 461.851 173.571 461.474 173.447C460.966 173.279 460.434 173.189 459.879 173.176C459.329 173.165 458.889 173.24 458.562 173.403C458.272 173.539 458.15 173.688 458.195 173.849C458.246 174.011 458.476 174.207 458.887 174.436L460.296 175.193C461.076 175.613 461.487 176.007 461.529 176.375C461.575 176.744 461.249 177.1 460.551 177.442C459.928 177.74 459.192 177.941 458.341 178.045C457.499 178.149 456.614 178.156 455.684 178.064C454.755 177.973 453.858 177.785 452.995 177.5C451.727 177.082 450.958 176.624 450.687 176.125C450.421 175.624 450.666 175.131 451.421 174.644L454.018 175.324C453.683 175.574 453.578 175.812 453.703 176.037C453.828 176.262 454.171 176.467 454.733 176.653C455.313 176.844 455.891 176.943 456.468 176.949C457.049 176.956 457.506 176.88 457.838 176.719C458.119 176.583 458.237 176.432 458.191 176.268C458.149 176.105 457.939 175.921 457.56 175.716L456.145 174.963C455.348 174.541 454.943 174.138 454.931 173.756C454.923 173.372 455.279 173.007 455.999 172.662C456.6 172.367 457.297 172.17 458.091 172.071C458.893 171.971 459.731 171.967 460.603 172.056C461.484 172.146 462.338 172.327 463.166 172.6C464.38 173 465.09 173.434 465.297 173.901C465.508 174.37 465.279 174.834 464.611 175.293Z" fill="#443218"/>
<path d="M448.828 217.371L448.825 247.554" stroke="#929292" stroke-linecap="round"/>
<path d="M424.492 260.972L311.334 316.068L191.956 275.109L191.956 244.693L304.796 189.737L424.492 230.873L424.492 260.972Z" fill="#FBF9F4" stroke="#929292"/>
<path d="M424.218 230.781L311.364 285.462L192.248 244.55L304.797 189.738L424.218 230.781Z" fill="#F4EDDD" stroke="#929292"/>
<path d="M263.461 225.34L260.657 224.415L279.506 219.439L282.749 220.509L274.118 228.854L271.314 227.929L278.366 221.358L278.253 221.321L263.461 225.34ZM268.942 222.759L276.589 225.281L274.589 226.25L266.942 223.728L268.942 222.759ZM284.518 227.366L278.478 230.292L275.914 229.447L286.223 224.452L288.673 225.26L286.921 226.109L287.049 226.151C287.876 225.954 288.733 225.863 289.621 225.879C290.513 225.896 291.365 226.039 292.177 226.307C292.928 226.554 293.43 226.844 293.683 227.175C293.94 227.507 293.934 227.864 293.663 228.245C293.398 228.627 292.851 229.017 292.023 229.415L285.46 232.595L282.896 231.749L289.084 228.751C289.773 228.417 290.123 228.094 290.135 227.781C290.151 227.469 289.829 227.204 289.168 226.986C288.719 226.839 288.227 226.752 287.689 226.728C287.161 226.704 286.624 226.743 286.076 226.847C285.534 226.952 285.014 227.125 284.518 227.366ZM290.987 234.587C290.298 234.36 289.793 234.099 289.474 233.804C289.163 233.508 289.078 233.196 289.218 232.867C289.362 232.539 289.772 232.212 290.448 231.884C291.03 231.603 291.624 231.407 292.231 231.297C292.838 231.188 293.451 231.142 294.071 231.161C294.691 231.18 295.305 231.242 295.912 231.347C296.528 231.452 297.128 231.579 297.71 231.727C298.41 231.907 298.983 232.051 299.429 232.157C299.879 232.262 300.248 232.318 300.534 232.325C300.83 232.332 301.095 232.279 301.327 232.166L301.367 232.147C301.873 231.902 302.106 231.66 302.067 231.421C302.029 231.182 301.712 230.965 301.117 230.769C300.489 230.562 299.861 230.46 299.234 230.465C298.611 230.47 298.059 230.538 297.578 230.667L295.507 229.722C296.322 229.481 297.157 229.33 298.012 229.269C298.871 229.206 299.72 229.228 300.558 229.333C301.4 229.436 302.202 229.613 302.962 229.863C303.486 230.036 303.949 230.236 304.352 230.464C304.755 230.692 305.037 230.941 305.198 231.213C305.364 231.483 305.348 231.771 305.152 232.077C304.96 232.386 304.521 232.706 303.837 233.037L296.938 236.38L294.474 235.568L295.89 234.881L295.805 234.853C295.363 234.941 294.875 234.998 294.341 235.026C293.816 235.054 293.265 235.034 292.689 234.968C292.121 234.901 291.554 234.774 290.987 234.587ZM293.438 233.942C293.952 234.111 294.495 234.212 295.065 234.243C295.639 234.272 296.189 234.242 296.714 234.153C297.244 234.066 297.699 233.93 298.079 233.745L299.294 233.157C299.151 233.161 298.956 233.144 298.709 233.106C298.466 233.07 298.207 233.022 297.931 232.964C297.654 232.906 297.385 232.846 297.122 232.785C296.86 232.724 296.632 232.671 296.44 232.625C296.008 232.523 295.586 232.449 295.172 232.404C294.758 232.358 294.363 232.356 293.987 232.396C293.615 232.433 293.273 232.528 292.96 232.68C292.512 232.897 292.347 233.117 292.463 233.341C292.58 233.566 292.904 233.766 293.438 233.942ZM315.823 231.416L302.079 238.076L299.515 237.23L313.26 230.571L315.823 231.416ZM302.442 241.343C302.093 241.228 301.796 241.108 301.553 240.984C301.309 240.864 301.134 240.759 301.026 240.669L303.513 239.948C303.783 240.121 304.067 240.254 304.364 240.349C304.661 240.443 305.006 240.486 305.398 240.476C305.79 240.471 306.258 240.4 306.803 240.262L307.58 240.065L314.159 233.665L316.878 234.562L311.6 239.161L311.713 239.198L322.012 236.255L324.738 237.154L308.827 241.318C308.078 241.515 307.341 241.653 306.617 241.731C305.888 241.811 305.177 241.821 304.485 241.76C303.794 241.703 303.112 241.564 302.442 241.343ZM331.943 239.53L330.064 240.441L323.811 238.379L325.69 237.468L331.943 239.53ZM329.704 236.781L332.267 237.626L322.589 242.315C322.263 242.473 322.064 242.612 321.994 242.731C321.932 242.849 321.957 242.952 322.07 243.04C322.182 243.128 322.344 243.207 322.556 243.277C322.717 243.33 322.874 243.373 323.029 243.405C323.188 243.44 323.312 243.464 323.401 243.479L321.933 244.542C321.752 244.518 321.507 244.477 321.198 244.419C320.894 244.363 320.556 244.277 320.184 244.161C319.524 243.958 319.037 243.723 318.724 243.456C318.415 243.186 318.324 242.898 318.452 242.59C318.584 242.284 318.975 241.975 319.624 241.665L329.704 236.781ZM323.778 245.232L334.087 240.237L336.65 241.083L326.342 246.077L323.778 245.232ZM336.838 239.953C336.432 239.82 336.21 239.643 336.173 239.423C336.14 239.2 336.304 239.001 336.667 238.826C337.034 238.648 337.491 238.546 338.039 238.519C338.591 238.489 339.07 238.542 339.476 238.676C339.886 238.811 340.106 238.989 340.134 239.21C340.172 239.43 340.008 239.629 339.641 239.807C339.278 239.982 338.821 240.085 338.269 240.114C337.726 240.142 337.249 240.089 336.838 239.953ZM333.52 248.609C332.435 248.251 331.728 247.834 331.401 247.358C331.079 246.884 331.106 246.384 331.482 245.86C331.868 245.335 332.582 244.82 333.624 244.315C334.671 243.807 335.807 243.43 337.033 243.182C338.263 242.932 339.489 242.826 340.711 242.865C341.941 242.903 343.088 243.097 344.15 243.447C345.033 243.738 345.66 244.071 346.031 244.444C346.411 244.817 346.525 245.206 346.371 245.611C346.222 246.014 345.805 246.405 345.119 246.783L342.669 245.975C343.066 245.702 343.244 245.423 343.202 245.14C343.17 244.856 342.844 244.612 342.226 244.408C341.702 244.235 341.107 244.149 340.442 244.148C339.782 244.145 339.092 244.227 338.374 244.395C337.66 244.564 336.956 244.816 336.263 245.152C335.561 245.493 335.065 245.821 334.777 246.138C334.493 246.452 334.41 246.74 334.529 247.001C334.657 247.262 334.988 247.481 335.521 247.657C335.899 247.781 336.304 247.86 336.735 247.893C337.176 247.925 337.628 247.912 338.09 247.853C338.553 247.795 339.007 247.688 339.454 247.533L341.904 248.341C341.114 248.674 340.241 248.912 339.285 249.056C338.334 249.198 337.362 249.235 336.369 249.166C335.381 249.095 334.431 248.909 333.52 248.609ZM356.666 249.903L354.087 249.249C354.245 249.119 354.34 248.979 354.371 248.829C354.408 248.681 354.349 248.532 354.196 248.383C354.043 248.234 353.769 248.095 353.372 247.964C352.839 247.788 352.28 247.693 351.698 247.679C351.12 247.667 350.659 247.747 350.314 247.917C350.01 248.061 349.882 248.217 349.93 248.386C349.983 248.557 350.225 248.762 350.656 249.003L352.136 249.797C352.955 250.238 353.386 250.652 353.43 251.038C353.479 251.426 353.136 251.799 352.403 252.158C351.749 252.471 350.976 252.682 350.083 252.792C349.199 252.902 348.269 252.908 347.293 252.812C346.317 252.716 345.376 252.519 344.469 252.22C343.138 251.781 342.331 251.299 342.047 250.776C341.767 250.25 342.024 249.732 342.816 249.221L345.544 249.935C345.192 250.197 345.082 250.447 345.213 250.683C345.344 250.92 345.704 251.135 346.294 251.33C346.903 251.531 347.511 251.634 348.116 251.641C348.726 251.649 349.205 251.568 349.554 251.399C349.85 251.256 349.973 251.098 349.925 250.926C349.881 250.755 349.661 250.562 349.263 250.347L347.777 249.556C346.94 249.112 346.514 248.69 346.502 248.288C346.493 247.885 346.868 247.502 347.624 247.139C348.254 246.83 348.987 246.623 349.82 246.519C350.663 246.415 351.542 246.409 352.458 246.504C353.383 246.598 354.28 246.788 355.149 247.074C356.423 247.495 357.169 247.95 357.386 248.441C357.608 248.933 357.368 249.42 356.666 249.903Z" fill="#443218"/>
<path d="M311.312 285.709L311.309 315.892" stroke="#929292" stroke-linecap="round"/>
<path d="M854.929 176.945L741.771 232.041L622.393 191.082L622.393 160.665L735.234 105.709L854.929 146.846L854.929 176.945Z" fill="#FBF9F4" stroke="#929292"/>
<path d="M854.655 146.754L741.801 201.435L622.686 160.522L735.235 105.711L854.655 146.754Z" fill="#F4EDDD" stroke="#929292"/>
<path d="M711.347 145.414L708.825 144.582C709.145 144.369 709.359 144.157 709.469 143.946C709.582 143.734 709.601 143.529 709.527 143.331C709.452 143.132 709.284 142.947 709.022 142.774C708.768 142.6 708.43 142.443 708.008 142.304C707.257 142.056 706.412 141.923 705.474 141.906C704.541 141.886 703.567 141.988 702.553 142.212C701.543 142.434 700.546 142.784 699.561 143.261C698.56 143.746 697.88 144.209 697.523 144.649C697.174 145.089 697.112 145.489 697.338 145.848C697.573 146.206 698.063 146.509 698.81 146.755C699.223 146.891 699.661 146.994 700.123 147.063C700.594 147.132 701.075 147.164 701.568 147.16C702.064 147.157 702.561 147.116 703.057 147.037C703.557 146.959 704.038 146.84 704.498 146.679L707.007 147.517C706.29 147.787 705.502 148.003 704.642 148.163C703.786 148.325 702.898 148.424 701.977 148.46C701.06 148.495 700.147 148.457 699.239 148.348C698.334 148.238 697.47 148.046 696.648 147.775C695.434 147.375 694.617 146.888 694.196 146.316C693.776 145.744 693.794 145.123 694.251 144.455C694.708 143.787 695.64 143.112 697.046 142.431C698.456 141.748 699.939 141.255 701.493 140.952C703.052 140.647 704.574 140.523 706.059 140.579C707.545 140.635 708.891 140.862 710.095 141.259C710.864 141.513 711.477 141.798 711.933 142.115C712.39 142.432 712.678 142.772 712.799 143.134C712.924 143.495 712.867 143.868 712.629 144.255C712.399 144.641 711.972 145.027 711.347 145.414ZM707.639 151.416C706.983 151.199 706.503 150.951 706.198 150.67C705.902 150.388 705.821 150.091 705.954 149.777C706.092 149.465 706.483 149.154 707.126 148.842C707.68 148.573 708.246 148.387 708.824 148.283C709.402 148.178 709.986 148.135 710.577 148.153C711.167 148.171 711.751 148.23 712.33 148.33C712.917 148.43 713.488 148.551 714.042 148.692C714.709 148.863 715.255 149 715.679 149.102C716.108 149.202 716.459 149.255 716.732 149.262C717.014 149.268 717.266 149.217 717.487 149.11L717.525 149.091C718.007 148.858 718.229 148.628 718.192 148.4C718.155 148.173 717.853 147.966 717.287 147.779C716.689 147.582 716.091 147.485 715.493 147.489C714.9 147.495 714.374 147.559 713.916 147.682L711.944 146.782C712.72 146.552 713.515 146.409 714.329 146.351C715.148 146.291 715.956 146.311 716.754 146.412C717.557 146.51 718.32 146.678 719.044 146.917C719.543 147.081 719.984 147.272 720.368 147.489C720.752 147.706 721.02 147.943 721.174 148.202C721.332 148.459 721.317 148.733 721.129 149.026C720.947 149.319 720.529 149.624 719.877 149.94L713.307 153.123L710.96 152.349L712.309 151.696L712.228 151.669C711.807 151.753 711.342 151.807 710.833 151.834C710.334 151.86 709.809 151.842 709.26 151.778C708.719 151.715 708.179 151.594 707.639 151.416ZM709.973 150.801C710.464 150.963 710.98 151.058 711.523 151.088C712.07 151.116 712.594 151.087 713.094 151.003C713.598 150.919 714.032 150.79 714.394 150.614L715.551 150.054C715.415 150.057 715.229 150.041 714.994 150.005C714.763 149.971 714.516 149.926 714.252 149.87C713.989 149.814 713.733 149.758 713.482 149.699C713.232 149.641 713.016 149.591 712.833 149.547C712.422 149.45 712.019 149.38 711.625 149.336C711.23 149.293 710.854 149.291 710.496 149.329C710.142 149.365 709.816 149.455 709.518 149.599C709.092 149.806 708.934 150.016 709.045 150.229C709.156 150.443 709.465 150.633 709.973 150.801ZM731.293 148.396L718.203 154.738L715.762 153.933L728.851 147.591L731.293 148.396ZM725.107 157.171C724.069 156.829 723.376 156.434 723.03 155.987C722.692 155.539 722.699 155.065 723.048 154.566C723.402 154.066 724.092 153.566 725.119 153.069C726.129 152.579 727.218 152.217 728.385 151.981C729.561 151.744 730.729 151.643 731.888 151.678C733.051 151.711 734.127 151.891 735.116 152.217C735.754 152.428 736.259 152.674 736.629 152.956C737.009 153.237 737.214 153.548 737.245 153.888C737.281 154.229 737.111 154.593 736.737 154.98C736.367 155.364 735.751 155.765 734.89 156.182L734.181 156.526L725.69 153.725L727.25 152.97L733.4 154.998C733.839 154.782 734.132 154.558 734.279 154.325C734.431 154.091 734.429 153.866 734.274 153.652C734.124 153.439 733.815 153.256 733.347 153.102C732.848 152.937 732.295 152.848 731.687 152.835C731.084 152.82 730.491 152.868 729.909 152.978C729.336 153.087 728.827 153.247 728.384 153.458L727.023 154.118C726.452 154.395 726.072 154.668 725.883 154.939C725.698 155.208 725.695 155.46 725.874 155.696C726.056 155.93 726.413 156.134 726.943 156.309C727.298 156.426 727.667 156.51 728.048 156.559C728.434 156.606 728.826 156.62 729.225 156.598C729.624 156.577 730.016 156.517 730.401 156.419L732.437 157.288C731.722 157.517 730.949 157.668 730.119 157.741C729.297 157.814 728.456 157.804 727.597 157.711C726.742 157.617 725.912 157.437 725.107 157.171ZM740.164 157.296L734.411 160.084L731.97 159.279L741.788 154.522L744.121 155.291L742.453 156.1L742.574 156.14C743.362 155.952 744.179 155.865 745.024 155.881C745.874 155.897 746.686 156.033 747.459 156.288C748.174 156.524 748.651 156.799 748.892 157.115C749.137 157.431 749.131 157.771 748.874 158.134C748.621 158.498 748.1 158.869 747.312 159.248L741.061 162.277L738.62 161.471L744.513 158.616C745.169 158.298 745.502 157.99 745.513 157.692C745.529 157.395 745.222 157.143 744.593 156.935C744.165 156.794 743.696 156.713 743.184 156.69C742.682 156.666 742.169 156.704 741.648 156.802C741.132 156.903 740.637 157.067 740.164 157.296ZM747.214 164.446C746.4 164.178 745.87 163.842 745.623 163.438C745.377 163.034 745.444 162.587 745.825 162.099C746.206 161.61 746.936 161.105 748.014 160.583C749.104 160.054 750.214 159.67 751.341 159.432C752.478 159.192 753.561 159.086 754.592 159.114C755.627 159.14 756.543 159.284 757.338 159.546C757.945 159.746 758.346 159.958 758.542 160.182C758.741 160.404 758.819 160.619 758.776 160.827C758.736 161.033 758.66 161.214 758.548 161.371L758.649 161.404L763.545 159.032L765.993 159.84L752.903 166.182L750.502 165.39L752.049 164.641L751.901 164.592C751.536 164.666 751.1 164.729 750.594 164.78C750.091 164.83 749.551 164.835 748.972 164.797C748.393 164.759 747.807 164.642 747.214 164.446ZM749.793 163.751C750.31 163.922 750.883 164.003 751.511 163.995C752.144 163.985 752.793 163.896 753.459 163.727C754.125 163.558 754.776 163.319 755.411 163.012C756.046 162.704 756.503 162.406 756.783 162.116C757.067 161.828 757.157 161.561 757.053 161.315C756.953 161.071 756.641 160.862 756.115 160.688C755.571 160.509 754.982 160.424 754.35 160.434C753.717 160.444 753.072 160.533 752.415 160.702C751.757 160.87 751.124 161.102 750.515 161.397C749.901 161.694 749.446 161.99 749.149 162.284C748.86 162.578 748.76 162.852 748.847 163.106C748.943 163.36 749.258 163.575 749.793 163.751ZM758.287 168.119C757.631 167.903 757.15 167.654 756.846 167.373C756.55 167.092 756.469 166.794 756.602 166.481C756.74 166.169 757.13 165.857 757.774 165.545C758.327 165.277 758.893 165.09 759.471 164.986C760.049 164.882 760.634 164.838 761.224 164.856C761.815 164.874 762.399 164.933 762.977 165.034C763.564 165.134 764.135 165.254 764.69 165.395C765.357 165.567 765.902 165.703 766.327 165.805C766.755 165.905 767.106 165.958 767.38 165.965C767.661 165.971 767.913 165.921 768.135 165.813L768.173 165.795C768.654 165.561 768.877 165.331 768.84 165.104C768.803 164.876 768.501 164.669 767.934 164.482C767.336 164.285 766.739 164.189 766.141 164.193C765.547 164.198 765.022 164.263 764.564 164.386L762.591 163.485C763.368 163.256 764.163 163.112 764.977 163.054C765.795 162.995 766.604 163.015 767.402 163.115C768.204 163.213 768.968 163.381 769.691 163.62C770.19 163.785 770.632 163.975 771.016 164.192C771.399 164.409 771.668 164.647 771.821 164.906C771.979 165.162 771.964 165.437 771.777 165.729C771.594 166.022 771.177 166.327 770.525 166.643L763.954 169.827L761.607 169.053L762.956 168.399L762.875 168.373C762.454 168.456 761.989 168.511 761.481 168.537C760.981 168.563 760.457 168.545 759.907 168.482C759.367 168.418 758.826 168.297 758.287 168.119ZM760.621 167.504C761.111 167.666 761.628 167.762 762.17 167.791C762.718 167.819 763.241 167.791 763.741 167.706C764.246 167.622 764.679 167.493 765.042 167.317L766.198 166.757C766.062 166.761 765.877 166.744 765.641 166.708C765.41 166.674 765.163 166.629 764.9 166.573C764.637 166.518 764.38 166.461 764.13 166.403C763.88 166.344 763.663 166.294 763.48 166.251C763.069 166.153 762.666 166.083 762.272 166.04C761.878 165.996 761.502 165.994 761.144 166.032C760.79 166.068 760.464 166.158 760.165 166.303C759.739 166.509 759.582 166.719 759.693 166.933C759.804 167.146 760.113 167.337 760.621 167.504ZM766.409 170.636L776.226 165.879L778.593 166.66L776.957 167.453L777.065 167.488C777.821 167.276 778.581 167.171 779.347 167.174C780.121 167.176 780.804 167.275 781.398 167.47C781.533 167.515 781.677 167.568 781.831 167.629C781.993 167.689 782.12 167.743 782.211 167.791L780.082 168.822C780.013 168.771 779.879 168.703 779.679 168.616C779.489 168.529 779.29 168.451 779.084 168.383C778.638 168.236 778.147 168.149 777.608 168.12C777.079 168.091 776.553 168.121 776.031 168.209C775.509 168.297 775.039 168.443 774.622 168.645L768.85 171.441L766.409 170.636Z" fill="#443218"/>
<path d="M741.75 201.68L741.747 231.862" stroke="#929292" stroke-linecap="round"/>
<path d="M716.062 245.283L602.904 300.379L483.526 259.42L483.526 229.003L596.367 174.047L716.062 215.184L716.062 245.283Z" fill="#FBF9F4" stroke="#929292"/>
<path d="M715.788 215.091L602.934 269.773L483.818 228.86L596.368 174.049L715.788 215.091Z" fill="#F4EDDD" stroke="#929292"/>
<path d="M571.991 218.436L567.311 216.892L580.4 210.55L585.175 212.124C586.546 212.577 587.462 213.092 587.923 213.671C588.392 214.249 588.404 214.862 587.959 215.51C587.513 216.157 586.611 216.81 585.252 217.469C583.888 218.13 582.449 218.609 580.934 218.908C579.423 219.208 577.905 219.319 576.378 219.243C574.856 219.167 573.393 218.898 571.991 218.436ZM571.864 216.723L573.921 217.402C574.883 217.719 575.852 217.903 576.827 217.954C577.807 218.003 578.791 217.92 579.779 217.704C580.772 217.487 581.769 217.136 582.77 216.651C583.771 216.165 584.44 215.709 584.777 215.283C585.118 214.854 585.136 214.455 584.83 214.087C584.533 213.719 583.917 213.38 582.982 213.072L580.851 212.369L571.864 216.723ZM585.29 222.978C584.278 222.644 583.613 222.253 583.293 221.804C582.973 221.355 582.987 220.879 583.337 220.377C583.69 219.876 584.374 219.38 585.389 218.888C586.403 218.397 587.493 218.033 588.661 217.797C589.833 217.562 591 217.465 592.164 217.505C593.328 217.546 594.415 217.733 595.427 218.066C596.438 218.4 597.104 218.791 597.424 219.24C597.744 219.689 597.725 220.165 597.367 220.668C597.013 221.173 596.33 221.671 595.315 222.162C594.301 222.653 593.21 223.015 592.043 223.248C590.88 223.482 589.716 223.579 588.553 223.539C587.389 223.498 586.301 223.312 585.29 222.978ZM587.157 222.084C587.705 222.265 588.307 222.347 588.961 222.331C589.619 222.312 590.281 222.214 590.947 222.038C591.617 221.864 592.25 221.632 592.847 221.343C593.448 221.052 593.899 220.758 594.2 220.462C594.51 220.165 594.626 219.886 594.547 219.624C594.468 219.362 594.154 219.14 593.606 218.96C593.044 218.774 592.432 218.69 591.769 218.707C591.11 218.726 590.444 218.824 589.77 219.001C589.104 219.177 588.471 219.41 587.87 219.701C587.273 219.99 586.822 220.282 586.516 220.577C586.215 220.873 586.104 221.152 586.182 221.414C586.27 221.676 586.595 221.899 587.157 222.084ZM596.844 226.788C595.81 226.447 595.137 226.05 594.825 225.597C594.518 225.145 594.544 224.67 594.903 224.17C595.27 223.67 595.95 223.18 596.942 222.699C597.939 222.216 599.022 221.856 600.189 221.62C601.361 221.382 602.528 221.281 603.692 221.318C604.864 221.354 605.956 221.539 606.967 221.872C607.808 222.149 608.405 222.466 608.758 222.822C609.12 223.177 609.229 223.548 609.083 223.933C608.941 224.317 608.543 224.689 607.89 225.05L605.557 224.28C605.935 224.02 606.105 223.755 606.065 223.485C606.034 223.214 605.724 222.982 605.135 222.788C604.636 222.623 604.069 222.54 603.436 222.54C602.807 222.537 602.15 222.615 601.466 222.775C600.786 222.936 600.116 223.176 599.456 223.496C598.787 223.82 598.315 224.133 598.04 224.435C597.77 224.734 597.691 225.008 597.804 225.257C597.926 225.506 598.241 225.714 598.749 225.881C599.109 226 599.494 226.075 599.906 226.107C600.325 226.137 600.756 226.125 601.196 226.069C601.636 226.013 602.069 225.911 602.495 225.763L604.828 226.533C604.075 226.85 603.244 227.077 602.334 227.214C601.428 227.349 600.502 227.384 599.557 227.319C598.616 227.251 597.711 227.074 596.844 226.788ZM618.887 228.02L616.431 227.398C616.581 227.274 616.672 227.141 616.702 226.998C616.736 226.857 616.681 226.715 616.535 226.573C616.389 226.432 616.128 226.299 615.75 226.174C615.242 226.006 614.71 225.916 614.155 225.903C613.605 225.892 613.166 225.967 612.838 226.13C612.548 226.267 612.426 226.415 612.472 226.576C612.522 226.739 612.753 226.934 613.164 227.164L614.573 227.92C615.352 228.34 615.763 228.734 615.805 229.102C615.852 229.471 615.526 229.827 614.827 230.169C614.205 230.467 613.468 230.668 612.618 230.773C611.776 230.877 610.89 230.883 609.96 230.791C609.031 230.7 608.134 230.512 607.271 230.227C606.003 229.809 605.234 229.351 604.964 228.852C604.698 228.351 604.942 227.858 605.697 227.371L608.295 228.051C607.96 228.301 607.854 228.539 607.979 228.764C608.104 228.989 608.447 229.194 609.009 229.38C609.589 229.571 610.168 229.67 610.744 229.676C611.325 229.684 611.782 229.607 612.114 229.446C612.395 229.31 612.513 229.159 612.467 228.995C612.425 228.832 612.215 228.648 611.837 228.444L610.421 227.69C609.624 227.268 609.219 226.865 609.207 226.483C609.199 226.099 609.555 225.734 610.276 225.389C610.876 225.094 611.573 224.897 612.367 224.798C613.17 224.698 614.007 224.694 614.88 224.784C615.761 224.873 616.615 225.054 617.442 225.327C618.656 225.727 619.366 226.161 619.573 226.628C619.784 227.097 619.556 227.561 618.887 228.02Z" fill="#443218"/>
<path d="M602.883 270.02L602.88 300.202" stroke="#929292" stroke-linecap="round"/>
<path d="M578.554 313.621L465.396 368.717L346.018 327.758L346.018 297.341L458.859 242.385L578.554 283.522L578.554 313.621Z" fill="#FBF9F4" stroke="#929292"/>
<path d="M578.28 283.429L465.426 338.111L346.311 297.198L458.86 242.387L578.28 283.429Z" fill="#F4EDDD" stroke="#929292"/>
<path d="M441.712 278.51L443.7 277.547L454.719 281.181L452.731 282.144L448.462 280.736L437.36 286.116L434.879 285.297L445.981 279.918L441.712 278.51ZM445.019 288.803C444.362 288.586 443.882 288.338 443.577 288.057C443.282 287.775 443.201 287.478 443.334 287.164C443.471 286.852 443.862 286.541 444.505 286.229C445.059 285.96 445.625 285.774 446.203 285.67C446.781 285.565 447.365 285.522 447.956 285.54C448.546 285.558 449.131 285.617 449.709 285.717C450.296 285.817 450.867 285.938 451.422 286.079C452.088 286.25 452.634 286.387 453.058 286.489C453.487 286.589 453.838 286.642 454.111 286.649C454.393 286.655 454.645 286.604 454.866 286.497L454.905 286.478C455.386 286.245 455.609 286.015 455.571 285.787C455.534 285.56 455.233 285.353 454.666 285.166C454.068 284.969 453.47 284.872 452.873 284.876C452.279 284.882 451.754 284.946 451.296 285.069L449.323 284.169C450.099 283.939 450.895 283.796 451.709 283.738C452.527 283.678 453.335 283.698 454.134 283.799C454.936 283.897 455.699 284.065 456.423 284.304C456.922 284.468 457.364 284.659 457.747 284.876C458.131 285.093 458.4 285.33 458.553 285.589C458.711 285.846 458.696 286.12 458.509 286.413C458.326 286.706 457.909 287.011 457.257 287.327L450.686 290.51L448.339 289.736L449.688 289.083L449.607 289.056C449.186 289.14 448.721 289.194 448.213 289.221C447.713 289.247 447.189 289.229 446.639 289.165C446.098 289.102 445.558 288.981 445.019 288.803ZM447.353 288.188C447.843 288.35 448.359 288.445 448.902 288.475C449.449 288.503 449.973 288.474 450.473 288.39C450.978 288.306 451.411 288.177 451.773 288.001L452.93 287.441C452.794 287.444 452.608 287.428 452.373 287.392C452.142 287.358 451.895 287.313 451.632 287.257C451.369 287.201 451.112 287.145 450.862 287.086C450.612 287.028 450.395 286.978 450.212 286.934C449.801 286.837 449.398 286.767 449.004 286.723C448.61 286.68 448.233 286.678 447.875 286.716C447.522 286.752 447.196 286.842 446.897 286.986C446.471 287.193 446.314 287.403 446.424 287.616C446.535 287.83 446.845 288.02 447.353 288.188ZM468.55 290.521L466.095 289.898C466.245 289.774 466.335 289.641 466.365 289.498C466.4 289.357 466.344 289.215 466.198 289.073C466.053 288.932 465.791 288.799 465.413 288.674C464.905 288.506 464.374 288.416 463.819 288.403C463.268 288.392 462.829 288.467 462.501 288.63C462.211 288.767 462.089 288.915 462.135 289.076C462.185 289.239 462.416 289.434 462.827 289.664L464.236 290.42C465.016 290.84 465.427 291.234 465.469 291.602C465.515 291.971 465.189 292.327 464.49 292.669C463.868 292.967 463.132 293.168 462.281 293.273C461.439 293.377 460.553 293.383 459.624 293.291C458.694 293.2 457.798 293.012 456.935 292.727C455.667 292.309 454.898 291.851 454.627 291.352C454.361 290.851 454.605 290.358 455.36 289.871L457.958 290.551C457.623 290.801 457.518 291.039 457.643 291.264C457.767 291.489 458.111 291.694 458.673 291.88C459.253 292.071 459.831 292.17 460.408 292.176C460.989 292.184 461.445 292.107 461.778 291.946C462.059 291.81 462.176 291.659 462.13 291.495C462.089 291.332 461.879 291.148 461.5 290.944L460.085 290.191C459.287 289.768 458.882 289.365 458.87 288.983C458.862 288.599 459.219 288.234 459.939 287.889C460.54 287.594 461.237 287.397 462.031 287.298C462.833 287.199 463.671 287.194 464.543 287.284C465.424 287.373 466.278 287.554 467.105 287.827C468.319 288.227 469.03 288.661 469.236 289.128C469.448 289.597 469.219 290.061 468.55 290.521ZM468.87 293.999L471.656 292.643L472.047 292.772L479.713 292.089L482.566 293.03L473.155 293.861L472.649 293.694L468.87 293.999ZM463.563 294.757L476.653 288.415L479.094 289.22L466.005 295.562L463.563 294.757ZM470.064 296.901L471.16 293.625L474.435 293.377L472.984 297.864L470.064 296.901ZM489.785 297.524L487.329 296.901C487.479 296.777 487.569 296.644 487.6 296.501C487.634 296.36 487.579 296.218 487.433 296.076C487.287 295.935 487.025 295.802 486.648 295.677C486.14 295.51 485.608 295.419 485.053 295.406C484.503 295.395 484.064 295.47 483.736 295.633C483.446 295.77 483.324 295.918 483.37 296.079C483.42 296.242 483.651 296.437 484.062 296.667L485.47 297.423C486.25 297.843 486.661 298.237 486.703 298.605C486.75 298.974 486.423 299.33 485.725 299.672C485.103 299.97 484.366 300.171 483.515 300.276C482.674 300.38 481.788 300.386 480.858 300.295C479.929 300.203 479.032 300.015 478.169 299.73C476.901 299.312 476.132 298.854 475.862 298.355C475.595 297.854 475.84 297.361 476.595 296.874L479.193 297.554C478.857 297.804 478.752 298.042 478.877 298.267C479.002 298.492 479.345 298.697 479.907 298.883C480.487 299.074 481.066 299.173 481.642 299.179C482.223 299.187 482.68 299.11 483.012 298.949C483.293 298.813 483.411 298.662 483.365 298.498C483.323 298.335 483.113 298.151 482.735 297.947L481.319 297.194C480.522 296.771 480.117 296.368 480.105 295.986C480.097 295.602 480.453 295.237 481.173 294.892C481.774 294.597 482.471 294.4 483.265 294.301C484.068 294.202 484.905 294.197 485.777 294.287C486.658 294.376 487.513 294.557 488.34 294.83C489.554 295.23 490.264 295.664 490.471 296.131C490.682 296.6 490.454 297.064 489.785 297.524Z" fill="#443218"/>
<path d="M465.383 338.357L465.38 368.54" stroke="#929292" stroke-linecap="round"/>
</svg>
