<svg version="1.1" id="Layer_1" xmlns:x="ns_extend;" xmlns:i="ns_ai;" xmlns:graph="ns_graphs;" xmlns="http://www.w3.org/2000/svg" xmlns:xlink="http://www.w3.org/1999/xlink" x="0px" y="0px" viewBox="0 0 78.8 83" style="enable-background:new 0 0 78.8 83;" xml:space="preserve">
 <style type="text/css">
  .st0{fill:#0A1551;}
	.st1{fill:#FFB21D;}
	.st2{fill:#0099FF;}
	.st3{fill:#FF6100;}
 </style>
 <metadata>
  <sfw xmlns="ns_sfw;">
   <slices>
   </slices>
   <sliceSourceBounds bottomLeftOrigin="true" height="83" width="78.8" x="80.2" y="109.5">
   </sliceSourceBounds>
  </sfw>
 </metadata>
 <g>
  <path class="st0" d="M21.6,78.6c1.6,1.6,0.5,4.3-1.8,4.3H5.2c-2.9,0-5.2-2.2-5.2-5V63.9c0-2.2,2.8-3.3,4.4-1.8L21.6,78.6z">
  </path>
  <path class="st1" d="M44.3,79.8c-4.3-4.2-4.3-11.1,0-15.3l15.5-15.3c4.3-4.2,11.3-4.2,15.6,0c4.3,4.2,4.3,11.1,0,15.3L59.9,79.8
		C55.6,84,48.6,84,44.3,79.8z">
  </path>
  <path class="st2" d="M3.3,41.4C-1,37.2-1,30.3,3.3,26.1L26.6,3.2c4.3-4.2,11.3-4.2,15.6,0c4.3,4.2,4.3,11.1,0,15.3L18.9,41.4
		C14.6,45.7,7.6,45.7,3.3,41.4z">
  </path>
  <path class="st3" d="M24.6,59.8c-4.3-4.2-4.3-11.1,0-15.3L60,9.7c4.3-4.2,11.3-4.2,15.6,0c4.3,4.2,4.3,11.1,0,15.3L40.2,59.8
		C35.9,64,29,64,24.6,59.8z">
  </path>
 </g>
</svg>